<?xml version="1.0" encoding="UTF-8" standalone="no"?>
<!-- Created with Inkscape (http://www.inkscape.org/) -->

<svg
   width="2100.6658mm"
   height="533.37201mm"
   viewBox="0 0 2100.6657 533.372"
   version="1.1"
   id="svg2675"
   sodipodi:docname="cncf_graz_banner_2024-02-19.svg"
   inkscape:version="1.3.2 (091e20e, 2023-11-25, custom)"
   inkscape:export-filename="cncf_graz_banner_2560x650.png"
   inkscape:export-xdpi="30.953997"
   inkscape:export-ydpi="30.953997"
   xmlns:inkscape="http://www.inkscape.org/namespaces/inkscape"
   xmlns:sodipodi="http://sodipodi.sourceforge.net/DTD/sodipodi-0.dtd"
   xmlns="http://www.w3.org/2000/svg"
   xmlns:svg="http://www.w3.org/2000/svg">
  <sodipodi:namedview
     id="namedview2677"
     pagecolor="#ffffff"
     bordercolor="#000000"
     borderopacity="0.25"
     inkscape:showpageshadow="2"
     inkscape:pageopacity="0.0"
     inkscape:pagecheckerboard="0"
     inkscape:deskcolor="#d1d1d1"
     inkscape:document-units="mm"
     showgrid="true"
     showguides="true"
     inkscape:lockguides="false"
     inkscape:zoom="0.81491672"
     inkscape:cx="6908.0678"
     inkscape:cy="1431.4346"
     inkscape:window-width="3840"
     inkscape:window-height="2054"
     inkscape:window-x="8629"
     inkscape:window-y="-11"
     inkscape:window-maximized="1"
     inkscape:current-layer="g9">
    <inkscape:grid
       type="xygrid"
       id="grid5486"
       originy="300"
       spacingy="300"
       originx="4.9291992e-07"
       units="mm"
       spacingx="0"
       visible="true" />
    <sodipodi:guide
       position="299.50784,626.15316"
       orientation="1,0"
       id="guide11367"
       inkscape:locked="false" />
    <sodipodi:guide
       position="513.03253,124.22678"
       orientation="0,-1"
       id="guide12387"
       inkscape:locked="false" />
    <sodipodi:guide
       position="2424.3659,407.15268"
       orientation="0,-1"
       id="guide466"
       inkscape:locked="false" />
    <sodipodi:guide
       position="859.54792,192.26571"
       orientation="0,-1"
       id="guide468"
       inkscape:locked="false" />
    <sodipodi:guide
       position="765.90903,334.9026"
       orientation="1,0"
       id="guide470"
       inkscape:locked="false" />
    <sodipodi:guide
       position="2023.9783,511.8412"
       orientation="1,0"
       id="guide472"
       inkscape:locked="false" />
  </sodipodi:namedview>
  <defs
     id="defs2672" />
  <g
     id="g9"
     inkscape:label="CNCF_Graz_big"
     transform="translate(-43.526814,-43.0275)">
    <rect
       style="display:inline;fill:#e5e5e5;fill-opacity:1;stroke:#808080;stroke-width:5;stroke-linejoin:round;stroke-miterlimit:1;stroke-dasharray:none;stroke-opacity:1;paint-order:markers stroke fill"
       id="rect12356"
       width="2095.5718"
       height="528.27808"
       x="46.073761"
       y="45.574448"
       inkscape:export-filename=".\400mm_mittig.png"
       inkscape:export-xdpi="30.57"
       inkscape:export-ydpi="30.57"
       inkscape:label="BG"
       rx="30"
       ry="30" />
    <g
       inkscape:groupmode="layer"
       id="g10159"
       inkscape:label="Uhrturm"
       transform="matrix(1.0427602,0,0,1.0427602,109.36073,80.748333)"
       style="display:inline">
      <path
         id="path10109"
         style="opacity:1;fill:#0086ff;fill-opacity:1;stroke:#000000;stroke-width:10;stroke-linejoin:round;stroke-miterlimit:1;stroke-dasharray:none;stroke-opacity:1;paint-order:markers stroke fill"
         d="m 140.05591,262.69175 61.47407,8.01906 6.21763,129.70252 -67.96009,5.78384 z"
         sodipodi:nodetypes="ccccc"
         inkscape:label="Rechts_unten"
         sodipodi:insensitive="true" />
      <path
         id="path10111"
         style="display:inline;opacity:1;fill:#0086ff;fill-opacity:1;stroke:#000000;stroke-width:10;stroke-linejoin:round;stroke-miterlimit:1;stroke-dasharray:none;stroke-opacity:1;paint-order:markers stroke fill"
         d="m 59.970582,271 23.966774,-2.63887 0.03615,-3.23533 14.423442,-1.71708 13.375122,-1.35559 3.41608,0.11749 1.53634,2.57561 23.32986,-2.06011 -0.26231,143.50655 -85.605295,-5.92392 z"
         sodipodi:nodetypes="ccccccccccc"
         inkscape:label="Links_unten"
         sodipodi:insensitive="true" />
      <path
         id="path10113"
         style="display:inline;opacity:1;fill:#93eaff;fill-opacity:0.8;stroke:#000000;stroke-width:10;stroke-linejoin:round;stroke-miterlimit:1;stroke-dasharray:none;stroke-opacity:1;paint-order:markers stroke fill"
         d="m 194.96786,315.39095 c 0,20.04438 -7.39926,35.1368 -19.73733,35.13681 -12.33808,0 -22.77386,-17.69515 -22.77386,-37.73953 0,-20.04439 8.26684,-33.25707 20.60492,-33.25706 12.33807,0 21.90627,15.8154 21.90627,35.85978 z"
         sodipodi:nodetypes="sssss"
         inkscape:label="rechts_uhr"
         sodipodi:insensitive="true" />
      <path
         id="path10115"
         style="opacity:1;fill:#93eaff;fill-opacity:0.8;stroke:#000000;stroke-width:10;stroke-linejoin:round;stroke-miterlimit:1;stroke-dasharray:none;stroke-opacity:1;paint-order:markers stroke fill"
         d="m 125.03874,315.68014 c 0,19.80482 -13.03615,35.71519 -27.690112,35.71519 -14.653968,0 -25.521181,-15.76578 -25.521181,-35.57059 0,-19.80482 13.036151,-36.58277 27.690111,-36.58277 14.653972,0 25.521182,16.63336 25.521182,36.43817 z"
         sodipodi:nodetypes="sssss"
         inkscape:label="links_uhr"
         sodipodi:insensitive="true" />
      <path
         id="path10117"
         style="display:inline;opacity:1;fill:#040c09;fill-opacity:1;stroke:#000000;stroke-width:10;stroke-linejoin:round;stroke-miterlimit:1;stroke-dasharray:none;stroke-opacity:1;paint-order:markers stroke fill"
         d="m 31.584555,265.15365 16.941451,-0.34464 74.309884,-8.49623 -0.318,-6.96144 19.88898,0.32501 27.65954,0.43943 -1.51594,3.74622 -5.17363,1.43382 0.34758,1.99617 33.93499,4.60341 17.11572,2.71188 17.82117,0.51602 -0.27616,2.45866 -8.33294,4.23813 -22.15561,-1.12149 -61.79142,-8.02302 -23.29286,2.09762 -1.37733,-2.55452 -4.16053,-0.17572 -27.371498,3.00846 0.08133,3.25661 -23.97581,2.624 -29.253562,1.32264 -0.447321,-2.06794 z"
         sodipodi:nodetypes="ccccccccccccccccccccccccc"
         inkscape:label="mitte"
         sodipodi:insensitive="true" />
      <path
         id="path10123"
         style="opacity:1;fill:#93eaff;fill-opacity:1;stroke:#000000;stroke-width:10;stroke-linejoin:round;stroke-miterlimit:1;stroke-dasharray:none;stroke-opacity:1;paint-order:markers stroke fill"
         d="m 196.28837,221.90969 36.40202,-0.10844 v 42.83654 l -18.29138,-0.1446 0.16267,-23.65047 4.5367,0.56935 z"
         sodipodi:nodetypes="ccccccc"
         inkscape:label="häuschen2_rechts"
         sodipodi:insensitive="true" />
      <path
         id="path10119"
         style="opacity:1;fill:#93eaff;fill-opacity:1;stroke:#000000;stroke-width:10;stroke-linejoin:round;stroke-miterlimit:1;stroke-dasharray:none;stroke-opacity:1;paint-order:markers stroke fill"
         d="m 169.68272,232.21216 44.78858,8.35041 -0.0361,23.89447 -44.35479,-6.43452 -6.30797,-0.84498 -0.41569,-1.74871 5.47659,-1.85715 1.03027,-2.39939 z"
         sodipodi:nodetypes="ccccccccc"
         inkscape:label="häuschen1_rechts"
         sodipodi:insensitive="true" />
      <path
         id="path10129"
         style="display:inline;opacity:1;fill:#78715e;fill-opacity:1;stroke:none;stroke-width:10;stroke-linejoin:round;stroke-miterlimit:1;stroke-dasharray:none;stroke-opacity:1;paint-order:markers stroke fill"
         d="m 121.22503,215.18598 5.44042,-8.38656 -2.42198,23.67758 -0.12652,0.56031 z"
         sodipodi:nodetypes="ccccc"
         inkscape:label="seitlich_häuschen_mitte"
         sodipodi:insensitive="true" />
      <path
         id="path10135"
         style="opacity:1;fill:#0086ff;fill-opacity:1;stroke:#000000;stroke-width:10;stroke-linejoin:round;stroke-miterlimit:1;stroke-dasharray:none;stroke-opacity:1;paint-order:markers stroke fill"
         d="m 144.0531,190.60468 58.66979,12.12798 -1.08442,0.70491 -0.9331,0.009 0.007,1.40077 -10.39735,11.82072 -20.83085,-2.20509 -0.0813,-5.74769 4.90722,-0.14459 z"
         sodipodi:nodetypes="cccccccccc"
         inkscape:label="turm_rechts"
         sodipodi:insensitive="true" />
      <path
         id="path10149"
         style="opacity:1;fill:#0086ff;fill-opacity:1;stroke:#000000;stroke-width:10;stroke-linejoin:round;stroke-miterlimit:1;stroke-dasharray:none;stroke-opacity:1;paint-order:markers stroke fill"
         d="m 59.443321,201.86562 82.589819,-11.30405 -0.13088,1.38062 -19.93616,14.13425 -2.9371,6.11822 -47.364202,7.63647 -10.130751,-10.72721 0.03149,-4.44982 z"
         sodipodi:nodetypes="ccccccccc"
         inkscape:label="turm_links"
         sodipodi:insensitive="true" />
      <path
         id="path10141"
         style="opacity:1;fill:#93eaff;fill-opacity:1;stroke:#000000;stroke-width:10;stroke-linejoin:round;stroke-miterlimit:1;stroke-dasharray:none;stroke-opacity:1;paint-order:markers stroke fill"
         d="m 32.009351,221.51205 35.660965,0.46994 -23.912549,18.69806 4.681293,-0.20786 -0.253043,23.8041 -16.375485,0.28919 z"
         sodipodi:nodetypes="ccccccc"
         inkscape:label="häuschen2_links"
         sodipodi:insensitive="true" />
      <path
         id="path10137"
         style="opacity:1;fill:#93eaff;fill-opacity:1;stroke:#000000;stroke-width:10;stroke-linejoin:round;stroke-miterlimit:1;stroke-dasharray:none;stroke-opacity:1;paint-order:markers stroke fill"
         d="m 48.43267,240.31554 75.58551,-9.33502 -1.32911,25.23455 -74.503805,8.0455 z"
         sodipodi:nodetypes="ccccc"
         inkscape:label="häuschen1_links"
         sodipodi:insensitive="true" />
      <path
         id="path10147"
         style="opacity:1;fill:#d62293;fill-opacity:1;stroke:#000000;stroke-width:10;stroke-linejoin:round;stroke-miterlimit:1;stroke-dasharray:none;stroke-opacity:1;paint-order:markers stroke fill"
         d="m 43.711222,206.37156 15.894673,0.0201 12.235413,13.46341 -3.954341,2.08367 -39.712562,-0.0647 z"
         sodipodi:nodetypes="cccccc"
         inkscape:label="dach_häuschen2_links"
         sodipodi:insensitive="true" />
      <path
         id="path10139"
         style="opacity:1;fill:#d62293;fill-opacity:1;stroke:#000000;stroke-width:10;stroke-linejoin:round;stroke-miterlimit:1;stroke-dasharray:none;stroke-opacity:1;paint-order:markers stroke fill"
         d="m 73.201113,218.87318 45.909197,-6.90446 -1.49114,3.13593 3.61038,0.24852 1.15225,5.96006 1.71707,9.66986 -80.43661,9.91979 z"
         sodipodi:nodetypes="cccccccc"
         inkscape:label="dach_häuschen1_Links"
         sodipodi:insensitive="true" />
      <path
         id="path10125"
         style="opacity:1;fill:#d62293;fill-opacity:1;stroke:#000000;stroke-width:10;stroke-linejoin:round;stroke-miterlimit:1;stroke-dasharray:none;stroke-opacity:1;paint-order:markers stroke fill"
         inkscape:label="dach_häuschen2_rechts"
         d="m 200.69854,204.91967 14.42344,-0.1446 22.30392,17.31536 -40.95679,-0.0361 -6.18148,-5.29583 z"
         sodipodi:nodetypes="cccccc"
         sodipodi:insensitive="true" />
      <path
         id="path10121"
         style="opacity:1;fill:#d62293;fill-opacity:1;stroke:#000000;stroke-width:10;stroke-linejoin:round;stroke-miterlimit:1;stroke-dasharray:none;stroke-opacity:1;paint-order:markers stroke fill"
         d="m 169.35738,214.39071 21.07486,2.31353 28.88304,24.8705 -49.8856,-9.14569 z"
         sodipodi:nodetypes="ccccc"
         inkscape:label="dach_häuschen1_rechts"
         sodipodi:insensitive="true" />
      <path
         id="path10155"
         style="opacity:1;fill:#0b0f18;fill-opacity:1;stroke:#000000;stroke-width:2;stroke-linejoin:round;stroke-miterlimit:1;stroke-dasharray:none;stroke-opacity:1;paint-order:markers stroke fill"
         d="m 145.26143,29.17734 0.93048,-0.57839 0.93987,41.69939 h -1.94265 z"
         sodipodi:nodetypes="ccccc"
         inkscape:label="spitze1"
         sodipodi:insensitive="true" />
      <path
         id="path10157"
         style="opacity:1;fill:#0b0f18;fill-opacity:1;stroke:#000000;stroke-width:2;stroke-linejoin:round;stroke-miterlimit:1;stroke-dasharray:none;stroke-opacity:1;paint-order:markers stroke fill"
         d="m 110.72376,39.03202 0.86757,0.2169 0.25304,39.14934 -2.16893,-0.21689 z"
         sodipodi:nodetypes="ccccc"
         inkscape:label="spitze2"
         sodipodi:insensitive="true" />
      <path
         id="path10151"
         style="opacity:1;fill:#d62293;fill-opacity:1;stroke:#000000;stroke-width:10;stroke-linejoin:round;stroke-miterlimit:1;stroke-dasharray:none;stroke-opacity:1;paint-order:markers stroke fill"
         d="m 145.67478,69.440271 2.19388,0.157983 2.33046,2.934926 43.6585,116.76351 9.86662,12.39717 -56.84807,-10.4034 -2.87646,-1.65714 -0.13651,0.84865 -4.33909,-0.80129 z"
         sodipodi:nodetypes="cccccccccc"
         inkscape:label="dach_turm_rechts"
         sodipodi:insensitive="true" />
      <path
         id="path10153"
         style="opacity:1;fill:#d62293;fill-opacity:1;stroke:#000000;stroke-width:10;stroke-linejoin:round;stroke-miterlimit:1;stroke-dasharray:none;stroke-opacity:1;paint-order:markers stroke fill"
         d="m 108.58552,79.28134 36.70586,-9.8155 -6.28805,119.67748 -82.051411,13.0362 7.821723,-10.12222 z"
         sodipodi:nodetypes="cccccc"
         inkscape:label="dach_turm_links"
         sodipodi:insensitive="true" />
      <rect
         style="display:inline;fill:#93eaff;fill-opacity:1;stroke:#000000;stroke-width:8.63324;stroke-linejoin:round;stroke-miterlimit:1;stroke-dasharray:none;stroke-opacity:1;paint-order:markers stroke fill"
         id="rect8328"
         width="46.966202"
         height="36.452995"
         x="122.74216"
         y="214.49956"
         sodipodi:insensitive="true"
         inkscape:label="häuschen" />
      <path
         id="rect8382"
         style="display:inline;fill:#d62293;fill-opacity:1;stroke:#000000;stroke-width:10;stroke-linejoin:round;stroke-miterlimit:1;paint-order:markers stroke fill"
         d="m 144.38861,191.07577 -0.0633,-1e-5 29.00631,20.13976 H 118.6123 Z"
         sodipodi:nodetypes="ccccc"
         sodipodi:insensitive="true"
         inkscape:label="dach" />
      <g
         id="g11178"
         transform="matrix(0.89911143,0,0,0.8994483,3.0467669,40.483001)"
         style="display:inline"
         inkscape:label="uhr_rechts">
        <rect
           style="display:inline;fill:#d62293;fill-opacity:1;stroke:#000000;stroke-width:5.74756;stroke-linejoin:round;stroke-miterlimit:1;stroke-dasharray:none;stroke-opacity:1;paint-order:markers stroke fill"
           id="rect9584-6-4"
           width="1.3924305"
           height="18.365551"
           x="352.42456"
           y="69.558586"
           transform="rotate(46.598905)" />
        <rect
           style="display:inline;fill:#d62293;fill-opacity:1;stroke:#000000;stroke-width:5.55918;stroke-linejoin:round;stroke-miterlimit:1;stroke-dasharray:none;stroke-opacity:1;paint-order:markers stroke fill"
           id="rect9584-0"
           width="1.5808086"
           height="15.133972"
           x="191.08882"
           y="289.42047" />
      </g>
      <g
         id="g11241"
         transform="matrix(0.94977916,0,0,0.94986459,-10.978225,26.165374)"
         style="display:inline"
         inkscape:label="uhr_links">
        <rect
           style="display:inline;fill:#d62293;fill-opacity:1;stroke:#000000;stroke-width:5.74756;stroke-linejoin:round;stroke-miterlimit:1;stroke-dasharray:none;stroke-opacity:1;paint-order:markers stroke fill"
           id="rect9584-6"
           width="1.3924305"
           height="18.365551"
           x="299.96405"
           y="125.8615"
           transform="rotate(46.598905)" />
        <rect
           style="display:inline;fill:#d62293;fill-opacity:1;stroke:#000000;stroke-width:5.55918;stroke-linejoin:round;stroke-miterlimit:1;stroke-dasharray:none;stroke-opacity:1;paint-order:markers stroke fill"
           id="rect9584"
           width="1.5808086"
           height="15.133972"
           x="114.22145"
           y="289.42047" />
      </g>
    </g>
    <g
       id="g12385"
       transform="matrix(15.540825,0,0,15.540821,-3279.9504,-7486.151)"
       style="display:inline"
       inkscape:label="Cloud Native">
      <g
         id="g12365"
         transform="matrix(0.26458333,0,0,0.26458333,238.02543,491.75124)"
         style="display:inline">
        <g
           id="g12363">
          <g
             id="g12361">
            <path
               id="path12359"
               d="m 150.79997,10.199978 c -3.99993,0 -7.69998,1.500023 -10.59998,4.200002 -1.39993,1.299993 -2.49998,2.900079 -3.19998,4.700072 -0.7,1.699986 -1.10002,3.699933 -1.00002,5.599919 0,1.899986 0.40012,3.800059 1.10005,5.600045 0.7,1.799986 1.80006,3.399953 3.19999,4.699946 2.9,2.699979 6.60005,4.200002 10.59998,4.200002 4,0 7.70005,-1.500023 10.59998,-4.200002 1.4,-1.299993 2.49995,-2.89996 3.09995,-4.699946 0.7,-1.699986 1.10001,-3.700059 1.00001,-5.600045 0.1,-1.899986 -0.30001,-3.799933 -1.00001,-5.599919 -0.7,-1.799993 -1.79999,-3.400079 -3.19999,-4.700072 -2.89993,-2.699979 -6.59998,-4.200002 -10.59998,-4.200002 z m -50.899955,0.100039 c -2.099986,-0.1 -4.200001,0.19998 -6.099987,0.899973 -1.899986,0.7 -3.700027,1.800004 -5.200013,3.19999 -1.399993,1.399993 -2.499996,2.999999 -3.199989,4.799985 -0.7,1.799986 -1.100006,3.800098 -1.000013,5.700084 -0.1,1.899986 0.300013,3.799933 1.000013,5.599919 0.699993,1.699993 1.799996,3.400079 3.199989,4.700072 1.499986,1.299993 3.199949,2.399951 4.999935,3.099951 1.899993,0.799993 3.80001,1.100012 5.799996,1.000012 4.399994,0 8.100004,-1.799995 11.300004,-5.399967 l -4.09997,-4.200002 c -0.89993,1.199993 -2.09994,2.199966 -3.39994,2.799959 -1.4,0.6 -2.80004,0.899974 -4.300037,0.899974 -2.099986,0 -4.200003,-0.799952 -5.799996,-2.099938 -0.899993,-0.8 -1.499992,-1.800006 -1.899985,-2.899999 -0.4,-1.099993 -0.600069,-2.200075 -0.500069,-3.400068 0,-1.099993 0.200108,-2.299949 0.600108,-3.399942 0.499993,-1.099993 1.099905,-2.099999 1.999898,-2.899999 1.699993,-1.499986 3.900008,-2.300016 6.099987,-2.300016 1.499994,0 2.900004,0.400013 4.200004,1.000013 1.3,0.599993 2.40003,1.499928 3.30003,2.699921 l 3.90001,-4.499994 c -1.4,-1.599986 -3.00003,-2.899979 -4.90003,-3.799972 -1.89993,-0.899993 -3.89995,-1.399956 -5.999945,-1.499956 z m 184.700015,0.299991 -12.19997,28.299965 h 6.79988 l 2.70005,-6.099988 h 11.89998 l 2.70005,6.099988 h 6.50001 L 290.70002,10.600008 Z m -169.09997,0.100039 v 28.199926 h 18.4 V 33.300054 H 121.8 V 10.700047 Z m 85.99992,0 v 28.299965 h 9.80005 c 5.29993,0 9.40002,-1.199993 12.00002,-3.799972 2.59993,-2.599986 3.90001,-6.100097 3.90001,-10.500069 0,-4.399972 -1.40009,-7.800005 -4.10009,-10.299991 -2.7,-2.499979 -6.60006,-3.699933 -11.59999,-3.699933 z m 41.80006,0 v 28.299965 h 6.29994 V 21.300029 l 13.49998,17.699983 h 6.30006 V 10.700047 h -6.30006 V 28.899973 L 249.19995,10.700047 Z m 85.69994,0 v 28.299965 h 6.30006 V 10.700047 Z m 9.99999,0 11.3,28.299965 h 5.30006 l 11.3,-28.299965 h -6.90005 l -7.20004,17.999974 -6.89992,-17.999974 z m 51.50007,0 -20.29999,0.09991 v 28.200052 h 20.79993 V 33.399967 H 376.39995 V 27.500056 H 389.1 v -5.400092 h -12.70005 v -5.799998 h 14.10009 v -5.562467 z m -219.90002,0.09991 v 15.799997 c 0,4.099972 1.09994,7.200038 3.39994,9.400017 1.1,1.099993 2.50005,1.899976 4.00005,2.499969 1.5,0.599993 3.09994,0.80006 4.69994,0.80006 1.6,0 3.20007,-0.200067 4.70007,-0.80006 1.5,-0.5 2.79999,-1.399976 3.99992,-2.499969 2.3,-2.199979 3.40007,-5.300045 3.40007,-9.400017 V 10.79996 h -6.30006 v 15.600045 c 0.1,1.899986 -0.39996,3.700061 -1.49996,5.300054 -0.4,0.599993 -1.09995,1.199956 -1.79995,1.499956 -0.69993,0.399993 -1.50001,0.499943 -2.30001,0.499943 -0.8,0 -1.70006,-0.19995 -2.40006,-0.499943 -0.69993,-0.3 -1.39998,-0.799963 -1.89998,-1.499956 -1.1,-1.499993 -1.70003,-3.400068 -1.70003,-5.300054 V 10.79996 Z m 131.59995,0 v 5.400093 h 7.99998 v 22.799959 h 6.30006 V 16.200053 h 8.10001 V 10.79996 Z m -151.4,4.700072 c 1.1,0 2.30003,0.200021 3.30003,0.700021 1,0.499993 1.90005,1.199906 2.70005,1.999899 1.6,1.799993 2.49997,4.100033 2.49997,6.500019 0.1,1.199993 -0.1,2.299988 -0.59999,3.499981 -0.4,1.099993 -1.09998,2.100045 -1.89998,3.000038 -0.7,0.899993 -1.70005,1.500025 -2.70005,2.000025 -1.1,0.499993 -2.20003,0.700021 -3.30003,0.700021 -1.09993,0 -2.30002,-0.200028 -3.30002,-0.700021 -1,-0.5 -1.89992,-1.200032 -2.69992,-2.000025 -1.6,-1.799993 -2.49997,-4.100033 -2.49997,-6.500019 0,-2.399986 0.89997,-4.700026 2.49997,-6.500019 0.7,-0.899993 1.69992,-1.499906 2.69992,-1.999899 1.1,-0.5 2.20009,-0.700021 3.30002,-0.700021 z m 57.09999,0.599982 h 3.49998 c 3.2,0 5.6,0.80003 7.1,2.300016 1.5,1.499993 2.30001,3.600001 2.30001,6.39998 0,2.799979 -0.80001,4.999987 -2.30001,6.39998 -1.8,1.599986 -4.19993,2.300064 -6.59993,2.100064 h -4.00005 z m 80.10001,3.000038 3.49998,8.199926 h -6.99996 z m -78.99393,31.199963 c 0.0635,0.100292 0.12881,0.220459 0.19392,0.339957 v -0.339957 z" />
          </g>
        </g>
      </g>
      <g
         id="g12383"
         transform="matrix(0.26458333,0,0,0.26458333,238.02543,491.75124)">
        <path
           class="st0"
           d="M 16.2,47.3 H 7.5 V 67.6 H 27.8 V 58.9 H 16.2 Z"
           id="path12367"
           style="fill:#0086ff" />
        <path
           class="st0"
           d="M 59.8,47.4 V 58.9 H 48.2 v 8.7 H 68.5 V 47.3 Z"
           id="path12369"
           style="fill:#0086ff" />
        <path
           class="st0"
           d="m 7.5,27.1 h 8.8 L 16.2,27 V 15.5 H 27.8 V 6.8 H 7.5 Z"
           id="path12371"
           style="fill:#0086ff" />
        <path
           class="st0"
           d="m 48.2,6.8 v 8.7 h 11.6 v 11.6 h 8.7 V 6.8 c -0.1,0 -20.3,0 -20.3,0 z"
           id="path12373"
           style="fill:#0086ff" />
        <path
           class="st1"
           d="M 47,27.1 35.4,15.5 H 48.1 V 6.8 H 27.8 v 8.7 l 11.6,11.6 z"
           id="path12375"
           style="fill:#93eaff" />
        <path
           class="st1"
           d="M 36.6,47.3 H 29 l 9.6,9.6 1.9,2 H 27.8 v 8.7 h 20.4 v -8.8 l -5.8,-5.7 z"
           id="path12377"
           style="fill:#93eaff" />
        <path
           class="st1"
           d="m 59.8,27.1 v 12.6 l -2,-2 -9.6,-9.6 v 7.7 l 5.7,5.7 5.8,5.8 h 8.8 V 27.1 Z"
           id="path12379"
           style="fill:#93eaff" />
        <path
           class="st1"
           d="M 27.8,38.6 16.3,27.1 H 7.5 v 20.2 h 8.7 V 34.7 l 11.6,11.6 z"
           id="path12381"
           style="fill:#93eaff" />
      </g>
    </g>
    <g
       aria-label="COMPUTING GRAZ"
       id="text1317"
       style="font-size:112.889px;font-family:'Passion One';-inkscape-font-specification:'Passion One';letter-spacing:0px;display:inline;fill:#e5e5e5;stroke-width:6.00001;stroke-linecap:round;stroke-linejoin:round;stroke-miterlimit:1;paint-order:markers stroke fill"
       inkscape:label="Computing Graz"
       transform="translate(0,9.0274759)">
      <path
         id="path538"
         style="font-weight:600;font-family:'Clarity City';-inkscape-font-specification:'Clarity City Semi-Bold';baseline-shift:baseline;fill:#000000;stroke-width:6"
         d="m 806.62312,329.07397 c -7.22489,0 -13.96104,1.84374 -20.20756,5.53145 -6.24652,3.61244 -11.21319,8.50433 -14.9009,14.67559 -3.6877,6.096 -5.53196,12.71892 -5.53196,19.86855 0,7.14963 1.84426,13.80995 5.53196,19.98121 3.68771,6.17125 8.65438,11.10106 14.9009,14.78876 6.24652,3.61245 12.98267,5.41879 20.20756,5.41879 5.64444,0 10.98765,-1.0917 16.03003,-3.27422 5.11762,-2.25777 9.55818,-5.38071 13.32115,-9.36945 l -9.93428,-9.2568 c -2.55882,2.85985 -5.53166,5.07961 -8.91832,6.66006 -3.31141,1.58044 -6.81088,2.37091 -10.49858,2.37091 -4.66608,0 -9.03133,-1.24179 -13.09533,-3.72535 -3.98874,-2.48355 -7.1875,-5.79502 -9.5958,-9.93428 -2.40829,-4.21451 -3.61218,-8.76777 -3.61218,-13.65963 0,-4.81659 1.20389,-9.29454 3.61218,-13.4338 2.4083,-4.21452 5.60706,-7.56338 9.5958,-10.04694 4.064,-2.48355 8.42925,-3.72535 13.09533,-3.72535 3.6877,0 7.18717,0.78995 10.49858,2.3704 3.38666,1.58044 6.32159,3.80072 8.80515,6.66057 l 10.04745,-9.36997 c -3.83823,-3.91348 -8.31618,-6.96111 -13.43381,-9.14363 -5.04237,-2.25777 -10.34819,-3.38687 -15.91737,-3.38687 z m 79.4737,0 c -7.22489,0 -13.96052,1.84374 -20.20704,5.53145 -6.24652,3.61244 -11.21371,8.50433 -14.90141,14.67559 -3.68771,6.096 -5.53145,12.71892 -5.53145,19.86855 0,7.14963 1.84374,13.80995 5.53145,19.98121 3.6877,6.17125 8.65489,11.10106 14.90141,14.78876 6.24652,3.61245 12.98215,5.41879 20.20704,5.41879 7.22488,0 13.96051,-1.80634 20.20703,-5.41879 6.24652,-3.6877 11.21372,-8.61751 14.90142,-14.78876 3.76296,-6.17126 5.64462,-12.83158 5.64462,-19.98121 0,-7.14963 -1.88166,-13.77255 -5.64462,-19.86855 -3.6877,-6.17126 -8.6549,-11.06315 -14.90142,-14.67559 -6.24652,-3.68771 -12.98215,-5.53145 -20.20703,-5.53145 z m 553.83338,0 c -7.2249,0 -13.9984,1.84374 -20.3202,5.53145 -6.2465,3.61244 -11.2511,8.50433 -15.0141,14.67559 -3.6876,6.096 -5.5319,12.71892 -5.5319,19.86855 0,7.14963 1.8443,13.80995 5.5319,19.98121 3.763,6.17125 8.7676,11.10106 15.0141,14.78876 6.3218,3.61245 13.0953,5.41879 20.3202,5.41879 5.7197,0 11.3641,-1.12909 16.9333,-3.38687 5.5692,-2.25778 10.2351,-5.34332 13.9981,-9.2568 v -31.3831 h -33.1891 v 11.51454 h 19.4169 v 14.11129 c -2.4083,1.73096 -5.1557,3.08547 -8.2414,4.06383 -3.0103,0.97837 -5.9827,1.46761 -8.9178,1.46761 -4.6661,0 -9.0687,-1.24179 -13.208,-3.72535 -4.064,-2.48355 -7.3006,-5.79502 -9.709,-9.93428 -2.4082,-4.21451 -3.6121,-8.76777 -3.6121,-13.65963 0,-4.81659 1.2039,-9.29454 3.6121,-13.4338 2.4084,-4.21452 5.645,-7.56338 9.709,-10.04694 4.1393,-2.48355 8.5419,-3.72535 13.208,-3.72535 3.8382,0 7.6763,0.82786 11.5145,2.48357 3.8382,1.58044 6.9617,3.76281 9.37,6.5474 l 10.0469,-9.36997 c -3.763,-3.83822 -8.4289,-6.88585 -13.9981,-9.14363 -5.5692,-2.25777 -11.2136,-3.38687 -16.9333,-3.38687 z m 115.7113,0 c -7.2249,0 -13.9985,1.84374 -20.3202,5.53145 -6.2466,3.61244 -11.2511,8.50433 -15.0141,14.67559 -3.6877,6.096 -5.5314,12.71892 -5.5314,19.86855 0,7.14963 1.8437,13.80995 5.5314,19.98121 3.763,6.17125 8.7675,11.10106 15.0141,14.78876 6.3217,3.61245 13.0953,5.41879 20.3202,5.41879 5.7196,0 11.3641,-1.12909 16.9333,-3.38687 5.5692,-2.25778 10.2351,-5.34332 13.9981,-9.2568 v -31.3831 h -33.1892 v 11.51454 h 19.4169 v 14.11129 c -2.4082,1.73096 -5.1551,3.08547 -8.2408,4.06383 -3.0104,0.97837 -5.9833,1.46761 -8.9183,1.46761 -4.6661,0 -9.0687,-1.24179 -13.208,-3.72535 -4.064,-2.48355 -7.3001,-5.79502 -9.7085,-9.93428 -2.4082,-4.21451 -3.6127,-8.76777 -3.6127,-13.65963 0,-4.81659 1.2045,-9.29454 3.6127,-13.4338 2.4084,-4.21452 5.6445,-7.56338 9.7085,-10.04694 4.1393,-2.48355 8.5419,-3.72535 13.208,-3.72535 3.8382,0 7.6763,0.82786 11.5145,2.48357 3.8383,1.58044 6.9617,3.76281 9.37,6.5474 l 10.0469,-9.36997 c -3.763,-3.83822 -8.4289,-6.88585 -13.9981,-9.14363 -5.5692,-2.25777 -11.2137,-3.38687 -16.9333,-3.38687 z m -612.4231,1.35496 v 77.55444 h 13.99862 v -51.81596 l 25.62583,47.30047 25.51265,-47.30047 v 51.81596 h 14.1113 v -77.55444 h -14.1113 l -25.51265,47.30047 -25.62583,-47.30047 z m 100.5846,0 v 77.55444 h 13.9981 v -26.07748 h 19.7553 c 5.4187,0 10.3485,-1.09119 14.7888,-3.2737 4.4403,-2.18252 7.9019,-5.23067 10.3854,-9.14415 2.5588,-3.91348 3.8385,-8.35352 3.8385,-13.32063 0,-4.96712 -1.2797,-9.40768 -3.8385,-13.32115 -2.4835,-3.91349 -5.9451,-6.96111 -10.3854,-9.14363 -4.4403,-2.18252 -9.3701,-3.2737 -14.7888,-3.2737 z m 76.2,0 v 44.4779 c 0,6.62282 1.4672,12.56849 4.4023,17.83664 2.9351,5.19289 6.9991,9.2569 12.192,12.19202 5.1929,2.93511 11.0633,4.40283 17.6108,4.40283 6.6229,0 12.5306,-1.46772 17.7235,-4.40283 5.1928,-2.93512 9.2195,-6.99913 12.0793,-12.19202 2.9352,-5.26815 4.4023,-11.21382 4.4023,-17.83664 v -44.4779 h -13.9981 v 44.02625 c 0,4.21452 -0.8652,8.01522 -2.5962,11.40189 -1.7309,3.38667 -4.1392,6.02088 -7.2249,7.90236 -3.0103,1.88148 -6.4724,2.82205 -10.3859,2.82205 -3.8382,0 -7.3003,-0.94057 -10.3859,-2.82205 -3.0104,-1.88148 -5.3807,-4.51569 -7.1117,-7.90236 -1.731,-3.38667 -2.5968,-7.18737 -2.5968,-11.40189 v -44.02625 z m 80.4896,0 v 12.86898 h 24.8357 v 64.68546 h 14.1108 v -64.68546 h 24.723 v -12.86898 z m 77.7803,0 v 77.55444 h 13.9981 v -77.55444 z m 35.4469,0 v 77.55444 h 13.9986 v -54.52536 l 40.9784,54.52536 h 13.9986 v -77.55444 h -13.9986 v 54.52535 l -40.9784,-54.52535 z m 291.0282,0 v 77.55444 h 13.9982 v -26.07748 h 12.4178 l 18.2883,26.07748 h 16.03 l -18.9652,-26.98027 c 6.3218,-1.42992 11.4017,-4.36537 15.2399,-8.80566 3.8382,-4.51556 5.7578,-9.85877 5.7578,-16.03003 0,-4.96712 -1.2798,-9.40768 -3.8386,-13.32115 -2.4836,-3.91349 -5.9456,-6.96111 -10.3859,-9.14363 -4.4403,-2.18252 -9.3696,-3.2737 -14.7882,-3.2737 z m 103.5193,0 -32.3991,77.55444 h 15.6916 l 6.0963,-14.67559 h 37.0272 l 6.0962,14.67559 h 15.5789 l -32.3995,-77.55444 z m 56.8963,0 v 12.86898 h 41.8817 l -42.785,53.96105 0.1131,10.72441 h 62.4278 v -12.8695 h -43.2367 l 42.785,-53.96053 v -10.72441 z m -879.06678,11.51454 c 4.66607,0 9.03133,1.2418 13.09532,3.72535 4.06401,2.48356 7.26225,5.83242 9.59528,10.04694 2.40829,4.13926 3.6127,8.61721 3.6127,13.4338 0,4.89186 -1.20441,9.44512 -3.6127,13.65963 -2.33303,4.13926 -5.53127,7.45073 -9.59528,9.93428 -4.06399,2.48356 -8.42925,3.72535 -13.09532,3.72535 -4.66608,0 -9.03132,-1.24179 -13.09533,-3.72535 -3.98873,-2.48355 -7.18698,-5.79502 -9.59528,-9.93428 -2.40829,-4.21451 -3.6127,-8.76777 -3.6127,-13.65963 0,-4.81659 1.20441,-9.29454 3.6127,-13.4338 2.4083,-4.21452 5.60655,-7.56338 9.59528,-10.04694 4.06401,-2.48355 8.42925,-3.72535 13.09533,-3.72535 z m 171.70428,1.46761 h 18.0619 c 4.8919,0 8.8058,1.16649 11.7409,3.49953 3.0104,2.25778 4.5155,5.34331 4.5155,9.2568 0,3.91348 -1.5051,7.03694 -4.5155,9.36997 -2.9351,2.25778 -6.849,3.38635 -11.7409,3.38635 h -18.0619 z m 560.9451,0 h 18.0624 c 4.8919,0 8.8053,1.16649 11.7404,3.49953 3.0104,2.25778 4.5155,5.34331 4.5155,9.2568 0,3.91348 -1.5051,7.03694 -4.5155,9.36997 -2.9351,2.25778 -6.8485,3.38635 -11.7404,3.38635 h -18.0624 z m 97.4235,5.75727 13.6596,32.62488 H 1702.51 Z"
         inkscape:label="Computing Graz" />
    </g>
  </g>
</svg>
