<?xml version="1.0" encoding="UTF-8" standalone="no"?>
<!-- Created with Inkscape (http://www.inkscape.org/) -->

<svg
   width="2200mm"
   height="600mm"
   viewBox="0 0 2200 600"
   version="1.1"
   id="svg2675"
   sodipodi:docname="uhrturm_final - big.svg"
   inkscape:version="1.2.1 (9c6d41e410, 2022-07-14)"
   inkscape:export-filename="thumb"
   inkscape:export-xdpi="18.814814"
   inkscape:export-ydpi="18.814814"
   xmlns:inkscape="http://www.inkscape.org/namespaces/inkscape"
   xmlns:sodipodi="http://sodipodi.sourceforge.net/DTD/sodipodi-0.dtd"
   xmlns="http://www.w3.org/2000/svg"
   xmlns:svg="http://www.w3.org/2000/svg">
  <sodipodi:namedview
     id="namedview2677"
     pagecolor="#ffffff"
     bordercolor="#000000"
     borderopacity="0.25"
     inkscape:showpageshadow="2"
     inkscape:pageopacity="0.0"
     inkscape:pagecheckerboard="0"
     inkscape:deskcolor="#d1d1d1"
     inkscape:document-units="mm"
     showgrid="true"
     showguides="true"
     inkscape:lockguides="false"
     inkscape:zoom="0.14405828"
     inkscape:cx="4484.2962"
     inkscape:cy="610.86388"
     inkscape:window-width="3840"
     inkscape:window-height="2054"
     inkscape:window-x="3829"
     inkscape:window-y="-11"
     inkscape:window-maximized="1"
     inkscape:current-layer="svg2675">
    <inkscape:grid
       type="xygrid"
       id="grid5486"
       originy="300"
       spacingy="300"
       originx="0"
       units="mm"
       spacingx="0" />
    <sodipodi:guide
       position="299.50785,626.15317"
       orientation="1,0"
       id="guide11367"
       inkscape:locked="false" />
    <sodipodi:guide
       position="513.03254,124.22678"
       orientation="0,-1"
       id="guide12387"
       inkscape:locked="false" />
    <sodipodi:guide
       position="2424.366,407.15269"
       orientation="0,-1"
       id="guide466"
       inkscape:locked="false" />
    <sodipodi:guide
       position="859.54794,192.26571"
       orientation="0,-1"
       id="guide468"
       inkscape:locked="false" />
    <sodipodi:guide
       position="765.90905,334.90261"
       orientation="1,0"
       id="guide470"
       inkscape:locked="false" />
    <sodipodi:guide
       position="2023.9783,511.84121"
       orientation="1,0"
       id="guide472"
       inkscape:locked="false" />
  </sodipodi:namedview>
  <defs
     id="defs2672" />
  <rect
     style="display:inline;fill:#e5e5e5;fill-opacity:1;stroke:#000000;stroke-width:31.055;stroke-linejoin:round;stroke-miterlimit:1;stroke-dasharray:none;stroke-opacity:1;paint-order:markers stroke fill"
     id="rect12356"
     width="2095.6658"
     height="508.95959"
     x="46.026814"
     y="45.5275"
     inkscape:export-filename=".\400mm_mittig.png"
     inkscape:export-xdpi="30.57"
     inkscape:export-ydpi="30.57" />
  <rect
     style="display:none;fill:#e5e5e5;fill-opacity:1;stroke:#000000;stroke-width:30;stroke-linejoin:round;stroke-miterlimit:1;stroke-dasharray:none;stroke-opacity:1;paint-order:markers stroke fill"
     id="rect11303"
     width="510"
     height="510"
     x="45.499393"
     y="59.829914"
     sodipodi:insensitive="true" />
  <ellipse
     style="display:none;fill:#e5e5e5;fill-opacity:1;stroke:#000000;stroke-width:30;stroke-linejoin:round;stroke-miterlimit:1;stroke-dasharray:none;paint-order:markers stroke fill"
     id="path5596"
     cx="300.71652"
     cy="316.07477"
     rx="240.32994"
     ry="240.32993"
     inkscape:label="path5596"
     sodipodi:insensitive="true" />
  <text
     xml:space="preserve"
     style="font-size:42.9883px;line-height:0.6;font-family:'Freestyle Script';-inkscape-font-specification:'Freestyle Script, Normal';letter-spacing:1.34339px;display:none;fill:#040c09;fill-opacity:1;stroke:#000000;stroke-width:4;stroke-linejoin:round;stroke-miterlimit:1;stroke-dasharray:none;stroke-opacity:1;paint-order:markers stroke fill"
     x="215.93141"
     y="447.12628"
     id="text22951"
     transform="matrix(0.901171,0.06336758,-0.04866423,1.1062454,0,0)"
     inkscape:label="CNCF"
     sodipodi:insensitive="true"><tspan
       sodipodi:role="line"
       id="tspan22949"
       style="font-style:normal;font-variant:normal;font-weight:600;font-stretch:normal;font-size:42.9883px;font-family:'Clarity City';-inkscape-font-specification:'Clarity City Semi-Bold';fill:#0086ff;fill-opacity:1;stroke:#000000;stroke-width:4;stroke-linejoin:round;stroke-dasharray:none;stroke-opacity:1;paint-order:markers stroke fill"
       x="0"
       y="0">CNCF</tspan></text>
  <text
     xml:space="preserve"
     style="font-style:normal;font-variant:normal;font-weight:normal;font-stretch:normal;font-size:40.6846px;font-family:Arial;-inkscape-font-specification:Arial;letter-spacing:1.27139px;display:none;fill:#114232;fill-opacity:1;stroke:#000000;stroke-width:4;stroke-linejoin:round;stroke-miterlimit:1;stroke-dasharray:none;stroke-opacity:1;paint-order:markers stroke fill"
     x="357.79272"
     y="454.44821"
     id="text23014"
     transform="matrix(0.83099405,-0.07329273,0.02701454,1.2009954,0,0)"
     inkscape:label="Graz"
     sodipodi:insensitive="true"><tspan
       sodipodi:role="line"
       id="tspan23012"
       style="font-style:normal;font-variant:normal;font-weight:600;font-stretch:normal;font-size:40.6846px;font-family:'Clarity City';-inkscape-font-specification:'Clarity City Semi-Bold';fill:#0086ff;fill-opacity:1;stroke:#000000;stroke-width:4;stroke-dasharray:none;stroke-opacity:1"
       x="0"
       y="0">GRAZ</tspan></text>
  <text
     xml:space="preserve"
     style="font-style:normal;font-variant:normal;font-weight:normal;font-stretch:normal;font-size:50.8px;font-family:'Passion One';-inkscape-font-specification:'Passion One';display:none;fill:#114232;fill-opacity:1;stroke:#000000;stroke-width:3;stroke-linejoin:round;stroke-miterlimit:1;stroke-dasharray:none;stroke-opacity:1;paint-order:markers stroke fill"
     x="287.97632"
     y="514.61432"
     id="text2465"
     inkscape:label="Bindestrich"
     sodipodi:insensitive="true"><tspan
       sodipodi:role="line"
       id="tspan2463"
       style="font-style:normal;font-variant:normal;font-weight:normal;font-stretch:normal;font-size:50.8px;font-family:'Clarity City';-inkscape-font-specification:'Clarity City';fill:#0086ff;fill-opacity:1;stroke:#000000;stroke-width:3;stroke-linejoin:round;stroke-miterlimit:1;stroke-dasharray:none;stroke-opacity:1;paint-order:markers stroke fill"
       x="0"
       y="0">-</tspan></text>
  <g
     inkscape:groupmode="layer"
     id="layer4"
     inkscape:label="Layer 2"
     sodipodi:insensitive="true"
     style="display:none" />
  <g
     inkscape:groupmode="layer"
     id="g10159"
     inkscape:label="Layer 2 copy"
     transform="matrix(1.0427602,0,0,1.0427602,109.36073,80.748333)"
     style="display:inline"
     sodipodi:insensitive="true">
    <path
       id="path10109"
       style="opacity:1;fill:#0086ff;fill-opacity:1;stroke:#000000;stroke-width:10;stroke-linejoin:round;stroke-miterlimit:1;stroke-dasharray:none;stroke-opacity:1;paint-order:markers stroke fill"
       d="m 155.85358,253.55494 61.47407,8.01906 6.21763,129.70252 -67.96009,5.78384 z"
       sodipodi:nodetypes="ccccc"
       inkscape:label="Rechts_unten"
       sodipodi:insensitive="true" />
    <path
       id="path10111"
       style="display:inline;opacity:1;fill:#0086ff;fill-opacity:1;stroke:#000000;stroke-width:10;stroke-linejoin:round;stroke-miterlimit:1;stroke-dasharray:none;stroke-opacity:1;paint-order:markers stroke fill"
       d="m 75.768254,261.86319 23.966774,-2.63887 0.03615,-3.23533 14.423442,-1.71708 13.37512,-1.35559 3.41608,0.11749 1.53634,2.57561 23.32986,-2.06011 -0.26231,143.50655 -85.605293,-5.92392 z"
       sodipodi:nodetypes="ccccccccccc"
       inkscape:label="Links_unten"
       sodipodi:insensitive="true" />
    <path
       id="path10113"
       style="display:inline;opacity:1;fill:#93eaff;fill-opacity:0.8;stroke:#000000;stroke-width:10;stroke-linejoin:round;stroke-miterlimit:1;stroke-dasharray:none;stroke-opacity:1;paint-order:markers stroke fill"
       d="m 210.76553,306.25414 c 0,20.04438 -7.39926,35.1368 -19.73733,35.13681 -12.33808,0 -22.77386,-17.69515 -22.77386,-37.73953 0,-20.04439 8.26684,-33.25707 20.60492,-33.25706 12.33807,0 21.90627,15.8154 21.90627,35.85978 z"
       sodipodi:nodetypes="sssss"
       inkscape:label="rechts_uhr"
       sodipodi:insensitive="true" />
    <path
       id="path10115"
       style="opacity:1;fill:#93eaff;fill-opacity:0.8;stroke:#000000;stroke-width:10;stroke-linejoin:round;stroke-miterlimit:1;stroke-dasharray:none;stroke-opacity:1;paint-order:markers stroke fill"
       d="m 140.83641,306.54333 c 0,19.80482 -13.03615,35.71519 -27.69011,35.71519 -14.653968,0 -25.521181,-15.76578 -25.521181,-35.57059 0,-19.80482 13.036151,-36.58277 27.690111,-36.58277 14.65397,0 25.52118,16.63336 25.52118,36.43817 z"
       sodipodi:nodetypes="sssss"
       inkscape:label="links_uhr"
       sodipodi:insensitive="true" />
    <path
       id="path10117"
       style="display:inline;opacity:1;fill:#040c09;fill-opacity:1;stroke:#000000;stroke-width:10;stroke-linejoin:round;stroke-miterlimit:1;stroke-dasharray:none;stroke-opacity:1;paint-order:markers stroke fill"
       d="m 47.382227,256.01684 16.941451,-0.34464 74.309882,-8.49623 -0.318,-6.96144 19.88898,0.32501 27.65954,0.43943 -1.51594,3.74622 -5.17363,1.43382 0.34758,1.99617 33.93499,4.60341 17.11572,2.71188 17.82117,0.51602 -0.27616,2.45866 -8.33294,4.23813 -22.15561,-1.12149 -61.79142,-8.02302 -23.29286,2.09762 -1.37733,-2.55452 -4.16053,-0.17572 -27.371496,3.00846 0.08133,3.25661 -23.97581,2.624 -29.253562,1.32264 -0.447321,-2.06794 z"
       sodipodi:nodetypes="ccccccccccccccccccccccccc"
       inkscape:label="mitte"
       sodipodi:insensitive="true" />
    <path
       id="path10123"
       style="opacity:1;fill:#93eaff;fill-opacity:1;stroke:#000000;stroke-width:10;stroke-linejoin:round;stroke-miterlimit:1;stroke-dasharray:none;stroke-opacity:1;paint-order:markers stroke fill"
       d="m 212.08604,212.77288 36.40202,-0.10844 v 42.83654 l -18.29138,-0.1446 0.16267,-23.65047 4.5367,0.56935 z"
       sodipodi:nodetypes="ccccccc"
       inkscape:label="häuschen2_rechts"
       sodipodi:insensitive="true" />
    <path
       id="path10119"
       style="opacity:1;fill:#93eaff;fill-opacity:1;stroke:#000000;stroke-width:10;stroke-linejoin:round;stroke-miterlimit:1;stroke-dasharray:none;stroke-opacity:1;paint-order:markers stroke fill"
       d="m 185.48039,223.07535 44.78858,8.35041 -0.0361,23.89447 -44.35479,-6.43452 -6.30797,-0.84498 -0.41569,-1.74871 5.47659,-1.85715 1.03027,-2.39939 z"
       sodipodi:nodetypes="ccccccccc"
       inkscape:label="häuschen1_rechts"
       sodipodi:insensitive="true" />
    <path
       id="path10129"
       style="display:inline;opacity:1;fill:#78715e;fill-opacity:1;stroke:none;stroke-width:10;stroke-linejoin:round;stroke-miterlimit:1;stroke-dasharray:none;stroke-opacity:1;paint-order:markers stroke fill"
       d="m 137.0227,206.04917 5.44042,-8.38656 -2.42198,23.67758 -0.12652,0.56031 z"
       sodipodi:nodetypes="ccccc"
       inkscape:label="seitlich_häuschen_mitte"
       sodipodi:insensitive="true" />
    <path
       id="path10135"
       style="opacity:1;fill:#0086ff;fill-opacity:1;stroke:#000000;stroke-width:10;stroke-linejoin:round;stroke-miterlimit:1;stroke-dasharray:none;stroke-opacity:1;paint-order:markers stroke fill"
       d="m 159.85077,181.46787 58.66979,12.12798 -1.08442,0.70491 -0.9331,0.009 0.007,1.40077 -10.39735,11.82072 -20.83085,-2.20509 -0.0813,-5.74769 4.90722,-0.14459 z"
       sodipodi:nodetypes="cccccccccc"
       inkscape:label="turm_rechts"
       sodipodi:insensitive="true" />
    <path
       id="path10149"
       style="opacity:1;fill:#0086ff;fill-opacity:1;stroke:#000000;stroke-width:10;stroke-linejoin:round;stroke-miterlimit:1;stroke-dasharray:none;stroke-opacity:1;paint-order:markers stroke fill"
       d="m 75.240993,192.72881 82.589817,-11.30405 -0.13088,1.38062 -19.93616,14.13425 -2.9371,6.11822 -47.3642,7.63647 -10.130751,-10.72721 0.03149,-4.44982 z"
       sodipodi:nodetypes="ccccccccc"
       inkscape:label="turm_links"
       sodipodi:insensitive="true" />
    <path
       id="path10143"
       style="display:none;opacity:1;fill:#191a14;fill-opacity:1;stroke:#000000;stroke-width:10;stroke-linejoin:round;stroke-miterlimit:1;stroke-dasharray:none;stroke-opacity:1;paint-order:markers stroke fill"
       d="m 46.035723,219.82193 1.772208,-7.41364 -1.163566,43.56904 -1.333126,4.23829 z"
       sodipodi:nodetypes="ccccc"
       inkscape:label="häuschen2_links_seite"
       sodipodi:insensitive="true" />
    <path
       id="path10145"
       style="display:none;opacity:1;fill:#191a14;fill-opacity:1;stroke:#000000;stroke-width:10;stroke-linejoin:round;stroke-miterlimit:1;stroke-dasharray:none;stroke-opacity:1;paint-order:markers stroke fill"
       d="m 44.440573,212.27751 3.380468,0.10225 -1.834015,7.55333 -3.553006,-0.0256 z"
       sodipodi:nodetypes="ccccc"
       inkscape:label="häuschen2_links_dach_unten"
       sodipodi:insensitive="true" />
    <path
       id="path10141"
       style="opacity:1;fill:#93eaff;fill-opacity:1;stroke:#000000;stroke-width:10;stroke-linejoin:round;stroke-miterlimit:1;stroke-dasharray:none;stroke-opacity:1;paint-order:markers stroke fill"
       d="m 47.807023,212.37524 35.660965,0.46994 -23.912549,18.69806 4.681293,-0.20786 -0.253043,23.8041 -16.375485,0.28919 z"
       sodipodi:nodetypes="ccccccc"
       inkscape:label="häuschen2_links"
       sodipodi:insensitive="true" />
    <path
       id="path10137"
       style="opacity:1;fill:#93eaff;fill-opacity:1;stroke:#000000;stroke-width:10;stroke-linejoin:round;stroke-miterlimit:1;stroke-dasharray:none;stroke-opacity:1;paint-order:markers stroke fill"
       d="m 64.230342,231.17873 75.585508,-9.33502 -1.32911,25.23455 -74.503803,8.0455 z"
       sodipodi:nodetypes="ccccc"
       inkscape:label="häuschen1_links"
       sodipodi:insensitive="true" />
    <path
       id="path10147"
       style="opacity:1;fill:#d62293;fill-opacity:1;stroke:#000000;stroke-width:10;stroke-linejoin:round;stroke-miterlimit:1;stroke-dasharray:none;stroke-opacity:1;paint-order:markers stroke fill"
       d="m 59.508894,197.23475 15.894673,0.0201 12.235413,13.46341 -3.954341,2.08367 -39.712562,-0.0647 z"
       sodipodi:nodetypes="cccccc"
       inkscape:label="dach_häuschen2_links"
       sodipodi:insensitive="true" />
    <path
       id="path10139"
       style="opacity:1;fill:#d62293;fill-opacity:1;stroke:#000000;stroke-width:10;stroke-linejoin:round;stroke-miterlimit:1;stroke-dasharray:none;stroke-opacity:1;paint-order:markers stroke fill"
       d="m 88.998785,209.73637 45.909195,-6.90446 -1.49114,3.13593 3.61038,0.24852 1.15225,5.96006 1.71707,9.66986 -80.436608,9.91979 z"
       sodipodi:nodetypes="cccccccc"
       inkscape:label="dach_häuschen1_Links"
       sodipodi:insensitive="true" />
    <path
       id="path10125"
       style="opacity:1;fill:#d62293;fill-opacity:1;stroke:#000000;stroke-width:10;stroke-linejoin:round;stroke-miterlimit:1;stroke-dasharray:none;stroke-opacity:1;paint-order:markers stroke fill"
       inkscape:label="dach_häuschen2_rechts"
       d="m 216.49621,195.78286 14.42344,-0.1446 22.30392,17.31536 -40.95679,-0.0361 -6.18148,-5.29583 z"
       sodipodi:nodetypes="cccccc"
       sodipodi:insensitive="true" />
    <path
       id="path10121"
       style="opacity:1;fill:#d62293;fill-opacity:1;stroke:#000000;stroke-width:10;stroke-linejoin:round;stroke-miterlimit:1;stroke-dasharray:none;stroke-opacity:1;paint-order:markers stroke fill"
       d="m 185.15505,205.2539 21.07486,2.31353 28.88304,24.8705 -49.8856,-9.14569 z"
       sodipodi:nodetypes="ccccc"
       inkscape:label="dach_häuschen1_rechts"
       sodipodi:insensitive="true" />
    <path
       id="path10131"
       style="display:none;opacity:1;fill:#100f0d;fill-opacity:1;stroke:#000000;stroke-width:10;stroke-linejoin:round;stroke-miterlimit:1;stroke-dasharray:none;stroke-opacity:1;paint-order:markers stroke fill"
       d="m 137.58301,197.01193 5.32294,-0.0362 -5.87421,9.10954 -3.73238,-0.0542 z"
       sodipodi:nodetypes="ccccc"
       inkscape:label="dach_unten_häuschen_mitte"
       sodipodi:insensitive="true" />
    <path
       id="path10127"
       style="display:none;opacity:1;fill:#93eaff;fill-opacity:1;stroke:#000000;stroke-width:10;stroke-linejoin:round;stroke-miterlimit:1;stroke-dasharray:none;stroke-opacity:1;paint-order:markers stroke fill"
       d="m 138.14898,198.65743 47.62061,0.92107 -0.1446,41.28214 -46.88521,-1e-5 z"
       sodipodi:nodetypes="ccccc"
       inkscape:label="häuschen_mitte"
       sodipodi:insensitive="true" />
    <path
       id="path10155"
       style="opacity:1;fill:#0b0f18;fill-opacity:1;stroke:#000000;stroke-width:2;stroke-linejoin:round;stroke-miterlimit:1;stroke-dasharray:none;stroke-opacity:1;paint-order:markers stroke fill"
       d="m 161.0591,20.040531 0.93048,-0.57839 0.93987,41.69939 h -1.94265 z"
       sodipodi:nodetypes="ccccc"
       inkscape:label="spitze1"
       sodipodi:insensitive="true" />
    <path
       id="path10157"
       style="opacity:1;fill:#0b0f18;fill-opacity:1;stroke:#000000;stroke-width:2;stroke-linejoin:round;stroke-miterlimit:1;stroke-dasharray:none;stroke-opacity:1;paint-order:markers stroke fill"
       d="m 126.52143,29.895211 0.86757,0.2169 0.25304,39.14934 -2.16893,-0.21689 z"
       sodipodi:nodetypes="ccccc"
       inkscape:label="spitze2"
       sodipodi:insensitive="true" />
    <path
       id="path10151"
       style="opacity:1;fill:#d62293;fill-opacity:1;stroke:#000000;stroke-width:10;stroke-linejoin:round;stroke-miterlimit:1;stroke-dasharray:none;stroke-opacity:1;paint-order:markers stroke fill"
       d="m 161.47245,60.303462 2.19388,0.157983 2.33046,2.934926 43.6585,116.763509 9.86662,12.39717 -56.84807,-10.4034 -2.87646,-1.65714 -0.13651,0.84865 -4.33909,-0.80129 z"
       sodipodi:nodetypes="cccccccccc"
       inkscape:label="dach_turm_rechts"
       sodipodi:insensitive="true" />
    <path
       id="path10153"
       style="opacity:1;fill:#d62293;fill-opacity:1;stroke:#000000;stroke-width:10;stroke-linejoin:round;stroke-miterlimit:1;stroke-dasharray:none;stroke-opacity:1;paint-order:markers stroke fill"
       d="m 124.38319,70.144531 36.70586,-9.8155 -6.28805,119.677479 -82.051409,13.0362 7.821723,-10.12222 z"
       sodipodi:nodetypes="cccccc"
       inkscape:label="dach_turm_links"
       sodipodi:insensitive="true" />
    <path
       id="path10133"
       style="display:none;opacity:1;fill:#d62293;fill-opacity:1;stroke:#000000;stroke-width:10;stroke-linejoin:round;stroke-miterlimit:1;stroke-dasharray:none;stroke-opacity:1;paint-order:markers stroke fill"
       d="m 159.73429,181.4635 30.80123,18.32737 -26.63475,-1.30362 -26.31523,-1.50172 c 21.50302,-15.35205 8.5502,-5.86428 22.14875,-15.52203 z"
       sodipodi:nodetypes="ccccc"
       inkscape:label="dach_häuschen_mitte"
       sodipodi:insensitive="true" />
    <rect
       style="display:inline;fill:#93eaff;fill-opacity:1;stroke:#000000;stroke-width:8.63324;stroke-linejoin:round;stroke-miterlimit:1;stroke-dasharray:none;stroke-opacity:1;paint-order:markers stroke fill"
       id="rect8328"
       width="46.966202"
       height="36.452995"
       x="138.53983"
       y="205.36275"
       sodipodi:insensitive="true" />
    <path
       id="rect8382"
       style="display:inline;fill:#d62293;fill-opacity:1;stroke:#000000;stroke-width:10;stroke-linejoin:round;stroke-miterlimit:1;paint-order:markers stroke fill"
       d="m 160.18628,181.93896 -0.0633,-1e-5 29.00631,20.13976 h -54.71932 z"
       sodipodi:nodetypes="ccccc"
       sodipodi:insensitive="true" />
    <g
       id="g11178"
       transform="matrix(0.89911143,0,0,0.8994483,18.844439,31.346192)">
      <rect
         style="display:inline;fill:#d62293;fill-opacity:1;stroke:#000000;stroke-width:5.74756;stroke-linejoin:round;stroke-miterlimit:1;stroke-dasharray:none;stroke-opacity:1;paint-order:markers stroke fill"
         id="rect9584-6-4"
         width="1.3924305"
         height="18.365551"
         x="352.42456"
         y="69.558586"
         transform="rotate(46.598905)" />
      <rect
         style="display:inline;fill:#d62293;fill-opacity:1;stroke:#000000;stroke-width:5.55918;stroke-linejoin:round;stroke-miterlimit:1;stroke-dasharray:none;stroke-opacity:1;paint-order:markers stroke fill"
         id="rect9584-0"
         width="1.5808086"
         height="15.133972"
         x="191.08882"
         y="289.42047" />
    </g>
    <g
       id="g11241"
       transform="matrix(0.94977916,0,0,0.94986459,4.8194474,17.028565)">
      <rect
         style="display:inline;fill:#d62293;fill-opacity:1;stroke:#000000;stroke-width:5.74756;stroke-linejoin:round;stroke-miterlimit:1;stroke-dasharray:none;stroke-opacity:1;paint-order:markers stroke fill"
         id="rect9584-6"
         width="1.3924305"
         height="18.365551"
         x="299.96405"
         y="125.8615"
         transform="rotate(46.598905)" />
      <rect
         style="display:inline;fill:#d62293;fill-opacity:1;stroke:#000000;stroke-width:5.55918;stroke-linejoin:round;stroke-miterlimit:1;stroke-dasharray:none;stroke-opacity:1;paint-order:markers stroke fill"
         id="rect9584"
         width="1.5808086"
         height="15.133972"
         x="114.22145"
         y="289.42047" />
    </g>
  </g>
  <g
     id="g9582"
     transform="matrix(3,0,0,3,-572.49312,-988.288)"
     sodipodi:insensitive="true"
     style="display:inline">
    <g
       id="g8619"
       transform="matrix(0.26458333,0,0,0.26458333,238.02543,491.75124)">
      <g
         id="g8617">
        <g
           id="g8615">
          <path
             d="m 98.9,33.4 c 1.5,0 2.9,-0.3 4.3,-0.9 1.3,-0.6 2.5,-1.6 3.4,-2.8 l 4.1,4.2 c -3.2,3.6 -6.9,5.4 -11.3,5.4 -2,0.1 -3.9,-0.2 -5.8,-1 -1.8,-0.7 -3.5,-1.8 -5,-3.1 -1.4,-1.3 -2.5,-3 -3.2,-4.7 -0.7,-1.8 -1.1,-3.7 -1,-5.6 -0.1,-1.9 0.3,-3.9 1,-5.7 0.7,-1.8 1.8,-3.4 3.2,-4.8 1.5,-1.4 3.3,-2.5 5.2,-3.2 1.9,-0.7 4,-1 6.1,-0.9 2.1,0.1 4.1,0.6 6,1.5 1.9,0.9 3.5,2.2 4.9,3.8 l -3.9,4.5 c -0.9,-1.2 -2,-2.1 -3.3,-2.7 -1.3,-0.6 -2.7,-1 -4.2,-1 -2.2,0 -4.4,0.8 -6.1,2.3 -0.9,0.8 -1.5,1.8 -2,2.9 -0.4,1.1 -0.6,2.3 -0.6,3.4 -0.1,1.2 0.1,2.3 0.5,3.4 0.4,1.1 1,2.1 1.9,2.9 1.6,1.3 3.7,2.1 5.8,2.1 z m 16.6,5.5 V 10.7 h 6.3 v 22.6 h 12.1 v 5.6 z m 46,-3.9 c -2.9,2.7 -6.6,4.2 -10.6,4.2 -4,0 -7.7,-1.5 -10.6,-4.2 -1.4,-1.3 -2.5,-2.9 -3.2,-4.7 -0.7,-1.8 -1.1,-3.7 -1.1,-5.6 -0.1,-1.9 0.3,-3.9 1,-5.6 0.7,-1.8 1.8,-3.4 3.2,-4.7 2.9,-2.7 6.6,-4.2 10.6,-4.2 4,0 7.7,1.5 10.6,4.2 1.4,1.3 2.5,2.9 3.2,4.7 0.7,1.8 1.1,3.7 1,5.6 0.1,1.9 -0.3,3.9 -1,5.6 -0.6,1.8 -1.7,3.4 -3.1,4.7 z m -2.2,-10.3 c 0,-2.4 -0.9,-4.7 -2.5,-6.5 -0.8,-0.8 -1.7,-1.5 -2.7,-2 -1,-0.5 -2.2,-0.7 -3.3,-0.7 -1.1,0 -2.2,0.2 -3.3,0.7 -1,0.5 -2,1.1 -2.7,2 -1.6,1.8 -2.5,4.1 -2.5,6.5 0,2.4 0.9,4.7 2.5,6.5 0.8,0.8 1.7,1.5 2.7,2 1,0.5 2.2,0.7 3.3,0.7 1.1,0 2.2,-0.2 3.3,-0.7 1,-0.5 2,-1.1 2.7,-2 0.8,-0.9 1.5,-1.9 1.9,-3 0.5,-1.2 0.7,-2.3 0.6,-3.5 z m 19.3,7 c 0.5,0.7 1.2,1.2 1.9,1.5 0.7,0.3 1.6,0.5 2.4,0.5 0.8,0 1.6,-0.1 2.3,-0.5 0.7,-0.3 1.4,-0.9 1.8,-1.5 1.1,-1.6 1.6,-3.4 1.5,-5.3 V 10.8 h 6.3 v 15.8 c 0,4.1 -1.1,7.2 -3.4,9.4 -1.2,1.1 -2.5,2 -4,2.5 -1.5,0.6 -3.1,0.8 -4.7,0.8 -1.6,0 -3.2,-0.2 -4.7,-0.8 -1.5,-0.6 -2.9,-1.4 -4,-2.5 -2.3,-2.2 -3.4,-5.3 -3.4,-9.4 V 10.8 h 6.3 v 15.6 c 0,1.9 0.6,3.8 1.7,5.3 z m 44.5,-17.3 c 2.7,2.5 4.1,5.9 4.1,10.3 0,4.4 -1.3,7.9 -3.9,10.5 -2.6,2.6 -6.7,3.8 -12,3.8 h -9.8 V 10.7 h 10 c 5,0 8.9,1.2 11.6,3.7 z m -4.6,16.8 c 1.5,-1.4 2.3,-3.6 2.3,-6.4 0,-2.8 -0.8,-4.9 -2.3,-6.4 -1.5,-1.5 -3.9,-2.3 -7.1,-2.3 h -3.5 v 17.2 h 4 c 2.4,0.2 4.8,-0.5 6.6,-2.1 z m 44.6,-20.5 h 6.3 V 39 h -6.3 L 249.6,21.3 V 39 h -6.3 V 10.7 h 5.9 l 13.9,18.2 z m 33.4,28.2 -2.7,-6.1 h -11.9 l -2.7,6.1 h -6.8 l 12.2,-28.3 h 6.1 L 303,38.9 Z m -8.5,-19.8 -3.5,8.2 h 7 z m 28.5,-2.9 V 39 h -6.3 V 16.2 h -8 v -5.4 h 22.4 v 5.4 c 0,0 -8.1,0 -8.1,0 z M 329,10.7 h 6.3 V 39 H 329 c 0,-0.1 0,-28.3 0,-28.3 z m 23.8,18 7.2,-18 h 6.9 L 355.6,39 h -5.3 L 339,10.7 h 6.9 z m 37.7,-18 v 5.6 h -14.1 v 5.8 h 12.7 v 5.4 h -12.7 v 5.9 H 391 V 39 H 370.2 V 10.8 l 20.3,-0.1 c 0,0.1 0,0 0,0 z M 91.6,63 c 0.8,0 1.6,-0.2 2.4,-0.5 0.7,-0.4 1.4,-0.9 1.9,-1.6 l 2.3,2.4 c -0.8,0.9 -1.7,1.7 -2.9,2.2 -1.1,0.5 -2.3,0.8 -3.5,0.8 -1.1,0 -2.2,-0.1 -3.2,-0.5 -1,-0.4 -2,-1 -2.8,-1.8 -0.8,-0.7 -1.4,-1.6 -1.8,-2.6 -0.4,-1 -0.6,-2.1 -0.6,-3.2 0,-1.1 0.2,-2.2 0.6,-3.2 0.4,-1 1,-1.9 1.8,-2.7 0.8,-0.8 1.7,-1.4 2.7,-1.8 1,-0.4 2.1,-0.6 3.2,-0.6 1.2,0 2.5,0.2 3.6,0.7 1.1,0.5 2.1,1.3 3,2.2 l -2.2,2.5 c -0.5,-0.7 -1.1,-1.2 -1.8,-1.6 -0.7,-0.4 -1.5,-0.5 -2.4,-0.5 -1.3,0 -2.5,0.5 -3.4,1.3 -0.5,0.4 -0.9,1 -1.1,1.6 -0.2,0.6 -0.4,1.3 -0.3,1.9 0,0.6 0.1,1.3 0.3,1.9 0.2,0.6 0.6,1.2 1,1.6 0.4,0.4 0.9,0.8 1.5,1 0.6,0.2 1.1,0.5 1.7,0.5 z m 22.3,0.9 c -1.6,1.5 -3.7,2.4 -5.9,2.4 -1.1,0 -2.2,-0.2 -3.2,-0.6 -1,-0.4 -1.9,-1 -2.7,-1.8 -1.5,-1.5 -2.4,-3.6 -2.4,-5.8 0,-2.2 0.9,-4.3 2.4,-5.8 1.6,-1.5 3.7,-2.4 5.9,-2.4 1.1,0 2.2,0.2 3.2,0.6 1,0.4 1.9,1 2.7,1.8 1.5,1.5 2.4,3.6 2.4,5.8 0,2.2 -0.9,4.3 -2.4,5.8 z m -1.1,-5.8 c 0,-1.3 -0.4,-2.6 -1.3,-3.6 -0.4,-0.5 -0.9,-0.8 -1.5,-1.1 -0.6,-0.3 -1.2,-0.4 -1.8,-0.4 -0.6,0 -1.3,0.1 -1.8,0.4 -0.6,0.3 -1.1,0.7 -1.5,1.2 -0.5,0.5 -0.8,1 -1,1.7 -0.2,0.6 -0.3,1.3 -0.3,1.9 0,1.3 0.5,2.6 1.3,3.6 0.4,0.5 0.9,0.8 1.5,1.1 0.6,0.3 1.2,0.4 1.8,0.4 0.6,0 1.3,-0.1 1.8,-0.4 0.6,-0.3 1.1,-0.7 1.5,-1.2 0.8,-0.9 1.3,-2.2 1.3,-3.6 z m 20.7,-2 -4.3,8.7 h -2.1 l -4.3,-8.7 v 10 h -3.5 V 50.3 h 4.8 l 4.1,8.7 4.1,-8.7 h 4.8 v 15.9 h -3.5 z m 18.4,-4.3 c 0.6,0.5 1.1,1.2 1.4,2 0.3,0.8 0.4,1.6 0.3,2.4 0,2 -0.6,3.4 -1.7,4.3 -1.1,1 -2.9,1.3 -5.2,1.3 h -2.1 v 4.4 H 141 V 50.3 h 5.6 c 2.4,0 4.1,0.5 5.3,1.5 z m -2.6,6.2 c 0.5,-0.6 0.7,-1.3 0.7,-2.1 0,-0.4 0,-0.7 -0.2,-1.1 -0.2,-0.3 -0.4,-0.6 -0.7,-0.8 -0.8,-0.4 -1.7,-0.6 -2.6,-0.6 h -2 v 5.3 h 2.4 c 0.4,0 0.9,0 1.3,-0.1 0.4,-0.2 0.8,-0.4 1.1,-0.6 z m 11.3,4 c 0.3,0.4 0.6,0.6 1.1,0.8 0.4,0.2 0.9,0.3 1.3,0.3 0.5,0 0.9,-0.1 1.3,-0.3 0.4,-0.2 0.8,-0.5 1.1,-0.8 0.6,-0.9 0.9,-2 0.9,-3 v -8.8 h 3.5 V 59 c 0.1,1 -0.1,1.9 -0.4,2.9 -0.3,0.9 -0.8,1.8 -1.5,2.5 -1.3,1.2 -3.1,1.8 -4.9,1.8 -1.8,0 -3.5,-0.7 -4.8,-1.9 -0.7,-0.7 -1.2,-1.6 -1.5,-2.5 -0.3,-0.9 -0.5,-1.9 -0.4,-2.9 v -8.8 h 3.5 v 8.8 c -0.2,1.1 0.1,2.2 0.8,3.1 z m 19.5,-8.6 v 12.7 h -3.5 V 53.4 h -4.5 v -3 h 12.6 v 3 c -0.1,0 -4.6,0 -4.6,0 z m 7.1,-3.1 h 3.5 v 15.9 h -3.5 c 0,0 0,-15.9 0,-15.9 z m 18.5,0 h 3.5 v 15.9 h -3.5 l -7.5,-9.9 v 9.9 h -3.5 V 50.3 h 3.3 l 7.8,10.2 -0.1,-10.2 c 0.1,0 0,0 0,0 z m 17.8,7.8 h 3.5 v 5.6 c -0.8,0.9 -1.9,1.6 -3,2 -1.1,0.5 -2.4,0.7 -3.6,0.6 -2.2,0 -4.3,-0.8 -5.9,-2.3 -0.8,-0.7 -1.4,-1.6 -1.8,-2.6 -0.4,-1 -0.6,-2.1 -0.6,-3.2 0,-1.1 0.2,-2.2 0.6,-3.2 0.4,-1 1,-1.9 1.8,-2.7 0.8,-0.8 1.7,-1.4 2.7,-1.8 1,-0.4 2.1,-0.6 3.2,-0.6 2.2,0 4.3,0.8 5.9,2.3 l -1.8,2.7 c -0.5,-0.6 -1.2,-1 -2,-1.2 -0.6,-0.2 -1.3,-0.4 -1.9,-0.4 -1.3,0 -2.5,0.5 -3.4,1.3 -0.5,0.5 -0.9,1 -1.1,1.7 -0.2,0.7 -0.4,1.3 -0.3,2 0,1.3 0.4,2.6 1.3,3.6 0.4,0.4 0.9,0.8 1.4,1 0.5,0.2 1.1,0.3 1.7,0.3 1.1,0.1 2.1,-0.2 3,-0.7 V 58 h 0.3 z M 247,50.3 v 3.1 h -7.3 v 3.4 h 6.9 V 60 h -6.9 v 6.2 h -3.5 V 50.3 c -0.1,0 10.8,0 10.8,0 z m 16.4,13.6 c -1.6,1.5 -3.7,2.4 -5.9,2.4 -1.1,0 -2.2,-0.2 -3.2,-0.6 -1,-0.4 -1.9,-1 -2.7,-1.8 -1.5,-1.5 -2.4,-3.6 -2.4,-5.8 0,-2.2 0.9,-4.3 2.4,-5.8 1.6,-1.5 3.7,-2.4 5.9,-2.4 1.1,0 2.2,0.2 3.2,0.6 1,0.4 1.9,1 2.7,1.8 1.5,1.5 2.4,3.6 2.4,5.8 0,2.2 -0.9,4.3 -2.4,5.8 z m -1.3,-5.8 c 0,-1.3 -0.4,-2.6 -1.3,-3.6 -0.4,-0.5 -0.9,-0.8 -1.5,-1.1 -0.6,-0.3 -1.2,-0.4 -1.8,-0.4 -0.6,0 -1.3,0.1 -1.8,0.4 -0.6,0.3 -1.1,0.7 -1.5,1.2 -0.5,0.5 -0.8,1 -1,1.7 -0.2,0.7 -0.3,1.3 -0.3,1.9 0,1.3 0.5,2.6 1.3,3.6 0.4,0.5 0.9,0.8 1.5,1.1 0.6,0.3 1.2,0.4 1.8,0.4 0.6,0 1.3,-0.1 1.8,-0.4 0.6,-0.3 1.1,-0.7 1.5,-1.2 0.5,-0.5 0.8,-1 1,-1.7 0.2,-0.7 0.4,-1.2 0.3,-1.9 z M 273,62 c 0.3,0.4 0.6,0.6 1.1,0.8 0.4,0.2 0.9,0.3 1.3,0.3 0.4,0 0.9,-0.1 1.3,-0.3 0.4,-0.2 0.8,-0.5 1.1,-0.8 0.6,-0.9 0.9,-2 0.9,-3 v -8.8 h 3.5 V 59 c 0.1,1 -0.1,1.9 -0.4,2.9 -0.3,0.9 -0.8,1.8 -1.5,2.5 -1.3,1.2 -3.1,1.8 -4.9,1.8 -1.8,0 -3.5,-0.7 -4.8,-1.9 -0.7,-0.7 -1.2,-1.6 -1.5,-2.5 -0.3,-0.9 -0.5,-1.9 -0.4,-2.9 v -8.8 h 3.5 v 8.8 c -0.2,1.1 0.1,2.3 0.8,3.1 z m 23.9,-11.7 h 3.5 v 15.9 h -3.5 l -7.5,-9.9 v 9.9 h -3.5 V 50.3 h 3.3 l 7.8,10.2 -0.1,-10.2 c 0.1,0 0,0 0,0 z m 19.5,2.1 c 0.8,0.7 1.4,1.7 1.8,2.7 0.4,1 0.6,2.1 0.5,3.1 0.1,1.1 -0.1,2.1 -0.5,3.1 -0.4,1 -1,1.9 -1.7,2.7 -1.4,1.4 -3.7,2.2 -6.8,2.2 h -5.4 V 50.3 h 5.6 c 2.9,0 5.1,0.7 6.5,2.1 z m -2.6,9.5 c 0.4,-0.5 0.8,-1 1,-1.6 0.2,-0.6 0.3,-1.3 0.3,-1.9 0,-0.7 -0.1,-1.3 -0.3,-1.9 -0.2,-0.6 -0.6,-1.2 -1,-1.7 -0.6,-0.5 -1.2,-0.8 -1.9,-1 -0.7,-0.2 -1.4,-0.3 -2.1,-0.2 h -2 v 9.6 h 2.3 c 1.3,-0.1 2.7,-0.5 3.7,-1.3 z m 18.8,4.2 -1.4,-3.4 h -6.7 l -1.4,3.4 h -3.8 l 6.9,-15.9 h 3.4 l 6.9,15.9 z m -4.8,-11.1 -2,4.6 h 4 z m 16,-1.6 v 12.7 h -3.5 V 53.4 h -4.6 v -3 h 12.6 v 3 c 0,0 -4.5,0 -4.5,0 z m 7,-3.1 h 3.5 v 15.9 h -3.5 c 0,0 0,-15.9 0,-15.9 z m 20.8,13.6 c -1.6,1.5 -3.7,2.4 -5.9,2.4 -1.1,0 -2.2,-0.2 -3.2,-0.6 -1,-0.4 -1.9,-1 -2.7,-1.8 -1.5,-1.5 -2.4,-3.6 -2.4,-5.8 0,-2.2 0.9,-4.3 2.4,-5.8 1.6,-1.5 3.7,-2.4 5.9,-2.4 1.1,0 2.2,0.2 3.2,0.6 1,0.4 1.9,1 2.7,1.8 1.5,1.5 2.4,3.6 2.4,5.8 0,2.2 -0.9,4.3 -2.4,5.8 z m -1.1,-5.8 c 0,-1.3 -0.5,-2.6 -1.3,-3.6 -0.4,-0.5 -0.9,-0.8 -1.5,-1.1 -0.6,-0.3 -1.2,-0.4 -1.8,-0.4 -0.6,0 -1.3,0.1 -1.8,0.4 -0.6,0.3 -1.1,0.7 -1.5,1.2 -0.5,0.5 -0.8,1 -1,1.7 -0.2,0.7 -0.3,1.3 -0.3,1.9 0,1.3 0.5,2.6 1.3,3.6 0.4,0.5 0.9,0.8 1.5,1.1 0.6,0.3 1.2,0.4 1.8,0.4 0.6,0 1.3,-0.1 1.8,-0.4 0.6,-0.3 1.1,-0.7 1.5,-1.2 0.8,-0.9 1.3,-2.2 1.3,-3.6 z m 17.6,-7.8 h 3.5 v 15.9 h -3.5 l -7.5,-9.9 v 9.9 H 377 V 50.3 h 3.3 l 7.8,10.2 c 0.1,0 0,-10.2 0,-10.2 z"
             id="path8613" />
        </g>
      </g>
    </g>
    <g
       id="g8637"
       transform="matrix(0.26458333,0,0,0.26458333,238.02543,491.75124)">
      <path
         class="st0"
         d="M 16.2,47.3 H 7.5 V 67.6 H 27.8 V 58.9 H 16.2 Z"
         id="path8621"
         style="fill:#0086ff" />
      <path
         class="st0"
         d="M 59.8,47.4 V 58.9 H 48.2 v 8.7 H 68.5 V 47.3 Z"
         id="path8623"
         style="fill:#0086ff" />
      <path
         class="st0"
         d="m 7.5,27.1 h 8.8 L 16.2,27 V 15.5 H 27.8 V 6.8 H 7.5 Z"
         id="path8625"
         style="fill:#0086ff" />
      <path
         class="st0"
         d="m 48.2,6.8 v 8.7 h 11.6 v 11.6 h 8.7 V 6.8 c -0.1,0 -20.3,0 -20.3,0 z"
         id="path8627"
         style="fill:#0086ff" />
      <path
         class="st1"
         d="M 47,27.1 35.4,15.5 H 48.1 V 6.8 H 27.8 v 8.7 l 11.6,11.6 z"
         id="path8629"
         style="fill:#93eaff" />
      <path
         class="st1"
         d="M 36.6,47.3 H 29 l 9.6,9.6 1.9,2 H 27.8 v 8.7 h 20.4 v -8.8 l -5.8,-5.7 z"
         id="path8631"
         style="fill:#93eaff" />
      <path
         class="st1"
         d="m 59.8,27.1 v 12.6 l -2,-2 -9.6,-9.6 v 7.7 l 5.7,5.7 5.8,5.8 h 8.8 V 27.1 Z"
         id="path8633"
         style="fill:#93eaff" />
      <path
         class="st1"
         d="M 27.8,38.6 16.3,27.1 H 7.5 v 20.2 h 8.7 V 34.7 l 11.6,11.6 z"
         id="path8635"
         style="fill:#93eaff" />
    </g>
  </g>
  <g
     id="g12385"
     transform="matrix(15.540825,0,0,15.540821,-3279.9504,-7495.1785)"
     style="display:inline"
     sodipodi:insensitive="true">
    <g
       id="g12365"
       transform="matrix(0.26458333,0,0,0.26458333,238.02543,491.75124)"
       style="display:inline">
      <g
         id="g12363">
        <g
           id="g12361">
          <path
             d="m 98.9,33.4 c 1.5,0 2.9,-0.3 4.3,-0.9 1.3,-0.6 2.5,-1.6 3.4,-2.8 l 4.1,4.2 c -3.2,3.6 -6.9,5.4 -11.3,5.4 -2,0.1 -3.9,-0.2 -5.8,-1 -1.8,-0.7 -3.5,-1.8 -5,-3.1 -1.4,-1.3 -2.5,-3 -3.2,-4.7 -0.7,-1.8 -1.1,-3.7 -1,-5.6 -0.1,-1.9 0.3,-3.9 1,-5.7 0.7,-1.8 1.8,-3.4 3.2,-4.8 1.5,-1.4 3.3,-2.5 5.2,-3.2 1.9,-0.7 4,-1 6.1,-0.9 2.1,0.1 4.1,0.6 6,1.5 1.9,0.9 3.5,2.2 4.9,3.8 l -3.9,4.5 c -0.9,-1.2 -2,-2.1 -3.3,-2.7 -1.3,-0.6 -2.7,-1 -4.2,-1 -2.2,0 -4.4,0.8 -6.1,2.3 -0.9,0.8 -1.5,1.8 -2,2.9 -0.4,1.1 -0.6,2.3 -0.6,3.4 -0.1,1.2 0.1,2.3 0.5,3.4 0.4,1.1 1,2.1 1.9,2.9 1.6,1.3 3.7,2.1 5.8,2.1 z m 16.6,5.5 V 10.7 h 6.3 v 22.6 h 12.1 v 5.6 z m 46,-3.9 c -2.9,2.7 -6.6,4.2 -10.6,4.2 -4,0 -7.7,-1.5 -10.6,-4.2 -1.4,-1.3 -2.5,-2.9 -3.2,-4.7 -0.7,-1.8 -1.1,-3.7 -1.1,-5.6 -0.1,-1.9 0.3,-3.9 1,-5.6 0.7,-1.8 1.8,-3.4 3.2,-4.7 2.9,-2.7 6.6,-4.2 10.6,-4.2 4,0 7.7,1.5 10.6,4.2 1.4,1.3 2.5,2.9 3.2,4.7 0.7,1.8 1.1,3.7 1,5.6 0.1,1.9 -0.3,3.9 -1,5.6 -0.6,1.8 -1.7,3.4 -3.1,4.7 z m -2.2,-10.3 c 0,-2.4 -0.9,-4.7 -2.5,-6.5 -0.8,-0.8 -1.7,-1.5 -2.7,-2 -1,-0.5 -2.2,-0.7 -3.3,-0.7 -1.1,0 -2.2,0.2 -3.3,0.7 -1,0.5 -2,1.1 -2.7,2 -1.6,1.8 -2.5,4.1 -2.5,6.5 0,2.4 0.9,4.7 2.5,6.5 0.8,0.8 1.7,1.5 2.7,2 1,0.5 2.2,0.7 3.3,0.7 1.1,0 2.2,-0.2 3.3,-0.7 1,-0.5 2,-1.1 2.7,-2 0.8,-0.9 1.5,-1.9 1.9,-3 0.5,-1.2 0.7,-2.3 0.6,-3.5 z m 19.3,7 c 0.5,0.7 1.2,1.2 1.9,1.5 0.7,0.3 1.6,0.5 2.4,0.5 0.8,0 1.6,-0.1 2.3,-0.5 0.7,-0.3 1.4,-0.9 1.8,-1.5 1.1,-1.6 1.6,-3.4 1.5,-5.3 V 10.8 h 6.3 v 15.8 c 0,4.1 -1.1,7.2 -3.4,9.4 -1.2,1.1 -2.5,2 -4,2.5 -1.5,0.6 -3.1,0.8 -4.7,0.8 -1.6,0 -3.2,-0.2 -4.7,-0.8 -1.5,-0.6 -2.9,-1.4 -4,-2.5 -2.3,-2.2 -3.4,-5.3 -3.4,-9.4 V 10.8 h 6.3 v 15.6 c 0,1.9 0.6,3.8 1.7,5.3 z m 44.5,-17.3 c 2.7,2.5 4.1,5.9 4.1,10.3 0,4.4 -1.3,7.9 -3.9,10.5 -2.6,2.6 -6.7,3.8 -12,3.8 h -9.8 V 10.7 h 10 c 5,0 8.9,1.2 11.6,3.7 z m -4.6,16.8 c 1.5,-1.4 2.3,-3.6 2.3,-6.4 0,-2.8 -0.8,-4.9 -2.3,-6.4 -1.5,-1.5 -3.9,-2.3 -7.1,-2.3 h -3.5 v 17.2 h 4 c 2.4,0.2 4.8,-0.5 6.6,-2.1 z m 44.6,-20.5 h 6.3 V 39 h -6.3 L 249.6,21.3 V 39 h -6.3 V 10.7 h 5.9 l 13.9,18.2 z m 33.4,28.2 -2.7,-6.1 h -11.9 l -2.7,6.1 h -6.8 l 12.2,-28.3 h 6.1 L 303,38.9 Z m -8.5,-19.8 -3.5,8.2 h 7 z m 28.5,-2.9 V 39 h -6.3 V 16.2 h -8 v -5.4 h 22.4 v 5.4 c 0,0 -8.1,0 -8.1,0 z M 329,10.7 h 6.3 V 39 H 329 c 0,-0.1 0,-28.3 0,-28.3 z m 23.8,18 7.2,-18 h 6.9 L 355.6,39 h -5.3 L 339,10.7 h 6.9 z m 37.7,-18 v 5.6 h -14.1 v 5.8 h 12.7 v 5.4 h -12.7 v 5.9 H 391 V 39 H 370.2 V 10.8 l 20.3,-0.1 c 0,0.1 0,0 0,0 z M 91.6,63 c 0.8,0 1.6,-0.2 2.4,-0.5 0.7,-0.4 1.4,-0.9 1.9,-1.6 l 2.3,2.4 c -0.8,0.9 -1.7,1.7 -2.9,2.2 -1.1,0.5 -2.3,0.8 -3.5,0.8 -1.1,0 -2.2,-0.1 -3.2,-0.5 -1,-0.4 -2,-1 -2.8,-1.8 -0.8,-0.7 -1.4,-1.6 -1.8,-2.6 -0.4,-1 -0.6,-2.1 -0.6,-3.2 0,-1.1 0.2,-2.2 0.6,-3.2 0.4,-1 1,-1.9 1.8,-2.7 0.8,-0.8 1.7,-1.4 2.7,-1.8 1,-0.4 2.1,-0.6 3.2,-0.6 1.2,0 2.5,0.2 3.6,0.7 1.1,0.5 2.1,1.3 3,2.2 l -2.2,2.5 c -0.5,-0.7 -1.1,-1.2 -1.8,-1.6 -0.7,-0.4 -1.5,-0.5 -2.4,-0.5 -1.3,0 -2.5,0.5 -3.4,1.3 -0.5,0.4 -0.9,1 -1.1,1.6 -0.2,0.6 -0.4,1.3 -0.3,1.9 0,0.6 0.1,1.3 0.3,1.9 0.2,0.6 0.6,1.2 1,1.6 0.4,0.4 0.9,0.8 1.5,1 0.6,0.2 1.1,0.5 1.7,0.5 z m 22.3,0.9 c -1.6,1.5 -3.7,2.4 -5.9,2.4 -1.1,0 -2.2,-0.2 -3.2,-0.6 -1,-0.4 -1.9,-1 -2.7,-1.8 -1.5,-1.5 -2.4,-3.6 -2.4,-5.8 0,-2.2 0.9,-4.3 2.4,-5.8 1.6,-1.5 3.7,-2.4 5.9,-2.4 1.1,0 2.2,0.2 3.2,0.6 1,0.4 1.9,1 2.7,1.8 1.5,1.5 2.4,3.6 2.4,5.8 0,2.2 -0.9,4.3 -2.4,5.8 z m -1.1,-5.8 c 0,-1.3 -0.4,-2.6 -1.3,-3.6 -0.4,-0.5 -0.9,-0.8 -1.5,-1.1 -0.6,-0.3 -1.2,-0.4 -1.8,-0.4 -0.6,0 -1.3,0.1 -1.8,0.4 -0.6,0.3 -1.1,0.7 -1.5,1.2 -0.5,0.5 -0.8,1 -1,1.7 -0.2,0.6 -0.3,1.3 -0.3,1.9 0,1.3 0.5,2.6 1.3,3.6 0.4,0.5 0.9,0.8 1.5,1.1 0.6,0.3 1.2,0.4 1.8,0.4 0.6,0 1.3,-0.1 1.8,-0.4 0.6,-0.3 1.1,-0.7 1.5,-1.2 0.8,-0.9 1.3,-2.2 1.3,-3.6 z m 20.7,-2 -4.3,8.7 h -2.1 l -4.3,-8.7 v 10 h -3.5 V 50.3 h 4.8 l 4.1,8.7 4.1,-8.7 h 4.8 v 15.9 h -3.5 z m 18.4,-4.3 c 0.6,0.5 1.1,1.2 1.4,2 0.3,0.8 0.4,1.6 0.3,2.4 0,2 -0.6,3.4 -1.7,4.3 -1.1,1 -2.9,1.3 -5.2,1.3 h -2.1 v 4.4 H 141 V 50.3 h 5.6 c 2.4,0 4.1,0.5 5.3,1.5 z m -2.6,6.2 c 0.5,-0.6 0.7,-1.3 0.7,-2.1 0,-0.4 0,-0.7 -0.2,-1.1 -0.2,-0.3 -0.4,-0.6 -0.7,-0.8 -0.8,-0.4 -1.7,-0.6 -2.6,-0.6 h -2 v 5.3 h 2.4 c 0.4,0 0.9,0 1.3,-0.1 0.4,-0.2 0.8,-0.4 1.1,-0.6 z m 11.3,4 c 0.3,0.4 0.6,0.6 1.1,0.8 0.4,0.2 0.9,0.3 1.3,0.3 0.5,0 0.9,-0.1 1.3,-0.3 0.4,-0.2 0.8,-0.5 1.1,-0.8 0.6,-0.9 0.9,-2 0.9,-3 v -8.8 h 3.5 V 59 c 0.1,1 -0.1,1.9 -0.4,2.9 -0.3,0.9 -0.8,1.8 -1.5,2.5 -1.3,1.2 -3.1,1.8 -4.9,1.8 -1.8,0 -3.5,-0.7 -4.8,-1.9 -0.7,-0.7 -1.2,-1.6 -1.5,-2.5 -0.3,-0.9 -0.5,-1.9 -0.4,-2.9 v -8.8 h 3.5 v 8.8 c -0.2,1.1 0.1,2.2 0.8,3.1 z m 19.5,-8.6 v 12.7 h -3.5 V 53.4 h -4.5 v -3 h 12.6 v 3 c -0.1,0 -4.6,0 -4.6,0 z m 7.1,-3.1 h 3.5 v 15.9 h -3.5 c 0,0 0,-15.9 0,-15.9 z m 18.5,0 h 3.5 v 15.9 h -3.5 l -7.5,-9.9 v 9.9 h -3.5 V 50.3 h 3.3 l 7.8,10.2 -0.1,-10.2 c 0.1,0 0,0 0,0 z m 17.8,7.8 h 3.5 v 5.6 c -0.8,0.9 -1.9,1.6 -3,2 -1.1,0.5 -2.4,0.7 -3.6,0.6 -2.2,0 -4.3,-0.8 -5.9,-2.3 -0.8,-0.7 -1.4,-1.6 -1.8,-2.6 -0.4,-1 -0.6,-2.1 -0.6,-3.2 0,-1.1 0.2,-2.2 0.6,-3.2 0.4,-1 1,-1.9 1.8,-2.7 0.8,-0.8 1.7,-1.4 2.7,-1.8 1,-0.4 2.1,-0.6 3.2,-0.6 2.2,0 4.3,0.8 5.9,2.3 l -1.8,2.7 c -0.5,-0.6 -1.2,-1 -2,-1.2 -0.6,-0.2 -1.3,-0.4 -1.9,-0.4 -1.3,0 -2.5,0.5 -3.4,1.3 -0.5,0.5 -0.9,1 -1.1,1.7 -0.2,0.7 -0.4,1.3 -0.3,2 0,1.3 0.4,2.6 1.3,3.6 0.4,0.4 0.9,0.8 1.4,1 0.5,0.2 1.1,0.3 1.7,0.3 1.1,0.1 2.1,-0.2 3,-0.7 V 58 h 0.3 z M 247,50.3 v 3.1 h -7.3 v 3.4 h 6.9 V 60 h -6.9 v 6.2 h -3.5 V 50.3 c -0.1,0 10.8,0 10.8,0 z m 16.4,13.6 c -1.6,1.5 -3.7,2.4 -5.9,2.4 -1.1,0 -2.2,-0.2 -3.2,-0.6 -1,-0.4 -1.9,-1 -2.7,-1.8 -1.5,-1.5 -2.4,-3.6 -2.4,-5.8 0,-2.2 0.9,-4.3 2.4,-5.8 1.6,-1.5 3.7,-2.4 5.9,-2.4 1.1,0 2.2,0.2 3.2,0.6 1,0.4 1.9,1 2.7,1.8 1.5,1.5 2.4,3.6 2.4,5.8 0,2.2 -0.9,4.3 -2.4,5.8 z m -1.3,-5.8 c 0,-1.3 -0.4,-2.6 -1.3,-3.6 -0.4,-0.5 -0.9,-0.8 -1.5,-1.1 -0.6,-0.3 -1.2,-0.4 -1.8,-0.4 -0.6,0 -1.3,0.1 -1.8,0.4 -0.6,0.3 -1.1,0.7 -1.5,1.2 -0.5,0.5 -0.8,1 -1,1.7 -0.2,0.7 -0.3,1.3 -0.3,1.9 0,1.3 0.5,2.6 1.3,3.6 0.4,0.5 0.9,0.8 1.5,1.1 0.6,0.3 1.2,0.4 1.8,0.4 0.6,0 1.3,-0.1 1.8,-0.4 0.6,-0.3 1.1,-0.7 1.5,-1.2 0.5,-0.5 0.8,-1 1,-1.7 0.2,-0.7 0.4,-1.2 0.3,-1.9 z M 273,62 c 0.3,0.4 0.6,0.6 1.1,0.8 0.4,0.2 0.9,0.3 1.3,0.3 0.4,0 0.9,-0.1 1.3,-0.3 0.4,-0.2 0.8,-0.5 1.1,-0.8 0.6,-0.9 0.9,-2 0.9,-3 v -8.8 h 3.5 V 59 c 0.1,1 -0.1,1.9 -0.4,2.9 -0.3,0.9 -0.8,1.8 -1.5,2.5 -1.3,1.2 -3.1,1.8 -4.9,1.8 -1.8,0 -3.5,-0.7 -4.8,-1.9 -0.7,-0.7 -1.2,-1.6 -1.5,-2.5 -0.3,-0.9 -0.5,-1.9 -0.4,-2.9 v -8.8 h 3.5 v 8.8 c -0.2,1.1 0.1,2.3 0.8,3.1 z m 23.9,-11.7 h 3.5 v 15.9 h -3.5 l -7.5,-9.9 v 9.9 h -3.5 V 50.3 h 3.3 l 7.8,10.2 -0.1,-10.2 c 0.1,0 0,0 0,0 z m 19.5,2.1 c 0.8,0.7 1.4,1.7 1.8,2.7 0.4,1 0.6,2.1 0.5,3.1 0.1,1.1 -0.1,2.1 -0.5,3.1 -0.4,1 -1,1.9 -1.7,2.7 -1.4,1.4 -3.7,2.2 -6.8,2.2 h -5.4 V 50.3 h 5.6 c 2.9,0 5.1,0.7 6.5,2.1 z m -2.6,9.5 c 0.4,-0.5 0.8,-1 1,-1.6 0.2,-0.6 0.3,-1.3 0.3,-1.9 0,-0.7 -0.1,-1.3 -0.3,-1.9 -0.2,-0.6 -0.6,-1.2 -1,-1.7 -0.6,-0.5 -1.2,-0.8 -1.9,-1 -0.7,-0.2 -1.4,-0.3 -2.1,-0.2 h -2 v 9.6 h 2.3 c 1.3,-0.1 2.7,-0.5 3.7,-1.3 z m 18.8,4.2 -1.4,-3.4 h -6.7 l -1.4,3.4 h -3.8 l 6.9,-15.9 h 3.4 l 6.9,15.9 z m -4.8,-11.1 -2,4.6 h 4 z m 16,-1.6 v 12.7 h -3.5 V 53.4 h -4.6 v -3 h 12.6 v 3 c 0,0 -4.5,0 -4.5,0 z m 7,-3.1 h 3.5 v 15.9 h -3.5 c 0,0 0,-15.9 0,-15.9 z m 20.8,13.6 c -1.6,1.5 -3.7,2.4 -5.9,2.4 -1.1,0 -2.2,-0.2 -3.2,-0.6 -1,-0.4 -1.9,-1 -2.7,-1.8 -1.5,-1.5 -2.4,-3.6 -2.4,-5.8 0,-2.2 0.9,-4.3 2.4,-5.8 1.6,-1.5 3.7,-2.4 5.9,-2.4 1.1,0 2.2,0.2 3.2,0.6 1,0.4 1.9,1 2.7,1.8 1.5,1.5 2.4,3.6 2.4,5.8 0,2.2 -0.9,4.3 -2.4,5.8 z m -1.1,-5.8 c 0,-1.3 -0.5,-2.6 -1.3,-3.6 -0.4,-0.5 -0.9,-0.8 -1.5,-1.1 -0.6,-0.3 -1.2,-0.4 -1.8,-0.4 -0.6,0 -1.3,0.1 -1.8,0.4 -0.6,0.3 -1.1,0.7 -1.5,1.2 -0.5,0.5 -0.8,1 -1,1.7 -0.2,0.7 -0.3,1.3 -0.3,1.9 0,1.3 0.5,2.6 1.3,3.6 0.4,0.5 0.9,0.8 1.5,1.1 0.6,0.3 1.2,0.4 1.8,0.4 0.6,0 1.3,-0.1 1.8,-0.4 0.6,-0.3 1.1,-0.7 1.5,-1.2 0.8,-0.9 1.3,-2.2 1.3,-3.6 z m 17.6,-7.8 h 3.5 v 15.9 h -3.5 l -7.5,-9.9 v 9.9 H 377 V 50.3 h 3.3 l 7.8,10.2 c 0.1,0 0,-10.2 0,-10.2 z"
             id="path12359" />
        </g>
      </g>
    </g>
    <g
       id="g12383"
       transform="matrix(0.26458333,0,0,0.26458333,238.02543,491.75124)">
      <path
         class="st0"
         d="M 16.2,47.3 H 7.5 V 67.6 H 27.8 V 58.9 H 16.2 Z"
         id="path12367"
         style="fill:#0086ff" />
      <path
         class="st0"
         d="M 59.8,47.4 V 58.9 H 48.2 v 8.7 H 68.5 V 47.3 Z"
         id="path12369"
         style="fill:#0086ff" />
      <path
         class="st0"
         d="m 7.5,27.1 h 8.8 L 16.2,27 V 15.5 H 27.8 V 6.8 H 7.5 Z"
         id="path12371"
         style="fill:#0086ff" />
      <path
         class="st0"
         d="m 48.2,6.8 v 8.7 h 11.6 v 11.6 h 8.7 V 6.8 c -0.1,0 -20.3,0 -20.3,0 z"
         id="path12373"
         style="fill:#0086ff" />
      <path
         class="st1"
         d="M 47,27.1 35.4,15.5 H 48.1 V 6.8 H 27.8 v 8.7 l 11.6,11.6 z"
         id="path12375"
         style="fill:#93eaff" />
      <path
         class="st1"
         d="M 36.6,47.3 H 29 l 9.6,9.6 1.9,2 H 27.8 v 8.7 h 20.4 v -8.8 l -5.8,-5.7 z"
         id="path12377"
         style="fill:#93eaff" />
      <path
         class="st1"
         d="m 59.8,27.1 v 12.6 l -2,-2 -9.6,-9.6 v 7.7 l 5.7,5.7 5.8,5.8 h 8.8 V 27.1 Z"
         id="path12379"
         style="fill:#93eaff" />
      <path
         class="st1"
         d="M 27.8,38.6 16.3,27.1 H 7.5 v 20.2 h 8.7 V 34.7 l 11.6,11.6 z"
         id="path12381"
         style="fill:#93eaff" />
    </g>
  </g>
  <rect
     style="fill:#e5e5e5;fill-opacity:1;stroke:none;stroke-width:6;stroke-linecap:round;stroke-linejoin:round;stroke-miterlimit:1;stroke-dasharray:none;paint-order:markers stroke fill"
     id="rect707"
     width="1311.3617"
     height="150.60455"
     x="760.36932"
     y="338.50201"
     sodipodi:insensitive="true" />
  <text
     xml:space="preserve"
     style="font-size:112.889px;font-family:'Passion One';-inkscape-font-specification:'Passion One';letter-spacing:0px;fill:#e5e5e5;fill-opacity:1;stroke:none;stroke-width:6.00001;stroke-linecap:round;stroke-linejoin:round;stroke-miterlimit:1;stroke-dasharray:none;paint-order:markers stroke fill"
     x="760.33844"
     y="407.98343"
     id="text1317"
     inkscape:export-filename="cncg_big.png"
     inkscape:export-xdpi="30.57"
     inkscape:export-ydpi="30.57"><tspan
       sodipodi:role="line"
       id="tspan1315"
       style="font-style:normal;font-variant:normal;font-weight:600;font-stretch:normal;font-size:112.889px;font-family:'Clarity City';-inkscape-font-specification:'Clarity City Semi-Bold';baseline-shift:baseline;fill:#000000;stroke-width:6"
       x="760.33844"
       y="407.98343">COMPUTING GRAZ</tspan></text>
</svg>
