<?xml version="1.0" encoding="UTF-8" standalone="no"?>
<!-- Created with Inkscape (http://www.inkscape.org/) -->

<svg
   width="515mm"
   height="515mm"
   viewBox="0 0 515 515"
   version="1.1"
   id="svg2675"
   sodipodi:docname="cncf_graz_icon_2025_02_07.svg"
   inkscape:version="1.4 (86a8ad7, 2024-10-11)"
   inkscape:export-filename="cncf_graz_icon_1080x1080.png"
   inkscape:export-xdpi="53.266022"
   inkscape:export-ydpi="53.266022"
   xmlns:inkscape="http://www.inkscape.org/namespaces/inkscape"
   xmlns:sodipodi="http://sodipodi.sourceforge.net/DTD/sodipodi-0.dtd"
   xmlns="http://www.w3.org/2000/svg"
   xmlns:svg="http://www.w3.org/2000/svg">
  <sodipodi:namedview
     id="namedview2677"
     pagecolor="#ffffff"
     bordercolor="#000000"
     borderopacity="0.25"
     inkscape:showpageshadow="2"
     inkscape:pageopacity="0.0"
     inkscape:pagecheckerboard="0"
     inkscape:deskcolor="#d1d1d1"
     inkscape:document-units="mm"
     showgrid="true"
     showguides="true"
     inkscape:lockguides="false"
     inkscape:zoom="0.5762331"
     inkscape:cx="643.83667"
     inkscape:cy="1120.2064"
     inkscape:window-width="3840"
     inkscape:window-height="2054"
     inkscape:window-x="2549"
     inkscape:window-y="-11"
     inkscape:window-maximized="1"
     inkscape:current-layer="g2">
    <inkscape:grid
       type="xygrid"
       id="grid5486"
       originy="300"
       spacingy="300"
       originx="0"
       units="mm"
       spacingx="0"
       visible="true" />
    <sodipodi:guide
       position="299.50784,626.1532"
       orientation="1,0"
       id="guide11367"
       inkscape:locked="false" />
    <sodipodi:guide
       position="513.03257,124.22678"
       orientation="0,-1"
       id="guide12387"
       inkscape:locked="false" />
    <sodipodi:guide
       position="208.51615,84.420435"
       orientation="1,0"
       id="guide828"
       inkscape:locked="false" />
    <sodipodi:guide
       position="199.73471,63.012089"
       orientation="0,-1"
       id="guide1600"
       inkscape:locked="false" />
    <sodipodi:guide
       position="257.74148,539.51807"
       orientation="1,0"
       id="guide7"
       inkscape:locked="false" />
    <sodipodi:guide
       position="119.15209,111.8573"
       orientation="1,0"
       id="guide8"
       inkscape:locked="false" />
    <sodipodi:guide
       position="395.79614,69.844137"
       orientation="1,0"
       id="guide9"
       inkscape:locked="false" />
  </sodipodi:namedview>
  <defs
     id="defs2672" />
  <g
     id="g2"
     inkscape:label="CNFC_Graz_Icon"
     transform="translate(-42.999393,-57.329914)">
    <rect
       style="display:inline;fill:#e5e5e5;fill-opacity:1;stroke:#808080;stroke-width:5;stroke-linejoin:round;stroke-miterlimit:1;stroke-dasharray:none;stroke-opacity:1;paint-order:markers stroke fill"
       id="rect11303"
       width="510"
       height="510"
       x="45.499393"
       y="59.829914"
       inkscape:label="BG"
       rx="30"
       ry="30"
       sodipodi:insensitive="true" />
    <g
       inkscape:groupmode="layer"
       id="g10159"
       inkscape:label="Uhrturm"
       transform="translate(148.81319,76.167872)"
       style="display:inline"
       sodipodi:insensitive="true">
      <path
         id="path10109"
         style="opacity:1;fill:#0086ff;fill-opacity:1;stroke:#000000;stroke-width:10;stroke-linejoin:round;stroke-miterlimit:1;stroke-dasharray:none;stroke-opacity:1;paint-order:markers stroke fill"
         d="m 155.85358,253.55494 61.47407,8.01906 6.21763,129.70252 -67.96009,5.78384 z"
         sodipodi:nodetypes="ccccc"
         inkscape:label="Rechts_unten"
         sodipodi:insensitive="true" />
      <path
         id="path10111"
         style="display:inline;opacity:1;fill:#0086ff;fill-opacity:1;stroke:#000000;stroke-width:10;stroke-linejoin:round;stroke-miterlimit:1;stroke-dasharray:none;stroke-opacity:1;paint-order:markers stroke fill"
         d="m 75.768254,261.86319 23.966774,-2.63887 0.03615,-3.23533 14.423442,-1.71708 13.37512,-1.35559 3.41608,0.11749 1.53634,2.57561 23.32986,-2.06011 -0.26231,143.50655 -85.605293,-5.92392 z"
         sodipodi:nodetypes="ccccccccccc"
         inkscape:label="Links_unten"
         sodipodi:insensitive="true" />
      <path
         id="path10113"
         style="display:inline;opacity:1;fill:#93eaff;fill-opacity:0.8;stroke:#000000;stroke-width:10;stroke-linejoin:round;stroke-miterlimit:1;stroke-dasharray:none;stroke-opacity:1;paint-order:markers stroke fill"
         d="m 210.76553,306.25414 c 0,20.04438 -7.39926,35.1368 -19.73733,35.13681 -12.33808,0 -22.77386,-17.69515 -22.77386,-37.73953 0,-20.04439 8.26684,-33.25707 20.60492,-33.25706 12.33807,0 21.90627,15.8154 21.90627,35.85978 z"
         sodipodi:nodetypes="sssss"
         inkscape:label="rechts_uhr"
         sodipodi:insensitive="true" />
      <path
         id="path10115"
         style="opacity:1;fill:#93eaff;fill-opacity:0.8;stroke:#000000;stroke-width:10;stroke-linejoin:round;stroke-miterlimit:1;stroke-dasharray:none;stroke-opacity:1;paint-order:markers stroke fill"
         d="m 140.83641,306.54333 c 0,19.80482 -13.03615,35.71519 -27.69011,35.71519 -14.653968,0 -25.521181,-15.76578 -25.521181,-35.57059 0,-19.80482 13.036151,-36.58277 27.690111,-36.58277 14.65397,0 25.52118,16.63336 25.52118,36.43817 z"
         sodipodi:nodetypes="sssss"
         inkscape:label="links_uhr"
         sodipodi:insensitive="true" />
      <path
         id="path10117"
         style="display:inline;opacity:1;fill:#040c09;fill-opacity:1;stroke:#000000;stroke-width:10;stroke-linejoin:round;stroke-miterlimit:1;stroke-dasharray:none;stroke-opacity:1;paint-order:markers stroke fill"
         d="m 47.382227,256.01684 16.941451,-0.34464 74.309882,-8.49623 -0.318,-6.96144 19.88898,0.32501 27.65954,0.43943 -1.51594,3.74622 -5.17363,1.43382 0.34758,1.99617 33.93499,4.60341 17.11572,2.71188 17.82117,0.51602 -0.27616,2.45866 -8.33294,4.23813 -22.15561,-1.12149 -61.79142,-8.02302 -23.29286,2.09762 -1.37733,-2.55452 -4.16053,-0.17572 -27.371496,3.00846 0.08133,3.25661 -23.97581,2.624 -29.253562,1.32264 -0.447321,-2.06794 z"
         sodipodi:nodetypes="ccccccccccccccccccccccccc"
         inkscape:label="mitte"
         sodipodi:insensitive="true" />
      <path
         id="path10123"
         style="opacity:1;fill:#93eaff;fill-opacity:1;stroke:#000000;stroke-width:10;stroke-linejoin:round;stroke-miterlimit:1;stroke-dasharray:none;stroke-opacity:1;paint-order:markers stroke fill"
         d="m 212.08604,212.77288 36.40202,-0.10844 v 42.83654 l -18.29138,-0.1446 0.16267,-23.65047 4.5367,0.56935 z"
         sodipodi:nodetypes="ccccccc"
         inkscape:label="häuschen2_rechts"
         sodipodi:insensitive="true" />
      <path
         id="path10119"
         style="opacity:1;fill:#93eaff;fill-opacity:1;stroke:#000000;stroke-width:10;stroke-linejoin:round;stroke-miterlimit:1;stroke-dasharray:none;stroke-opacity:1;paint-order:markers stroke fill"
         d="m 185.48039,223.07535 44.78858,8.35041 -0.0361,23.89447 -44.35479,-6.43452 -6.30797,-0.84498 -0.41569,-1.74871 5.47659,-1.85715 1.03027,-2.39939 z"
         sodipodi:nodetypes="ccccccccc"
         inkscape:label="häuschen1_rechts"
         sodipodi:insensitive="true" />
      <path
         id="path10129"
         style="display:inline;opacity:1;fill:#78715e;fill-opacity:1;stroke:none;stroke-width:10;stroke-linejoin:round;stroke-miterlimit:1;stroke-dasharray:none;stroke-opacity:1;paint-order:markers stroke fill"
         d="m 137.0227,206.04917 5.44042,-8.38656 -2.42198,23.67758 -0.12652,0.56031 z"
         sodipodi:nodetypes="ccccc"
         inkscape:label="seitlich_häuschen_mitte"
         sodipodi:insensitive="true" />
      <path
         id="path10135"
         style="opacity:1;fill:#0086ff;fill-opacity:1;stroke:#000000;stroke-width:10;stroke-linejoin:round;stroke-miterlimit:1;stroke-dasharray:none;stroke-opacity:1;paint-order:markers stroke fill"
         d="m 159.85077,181.46787 58.66979,12.12798 -1.08442,0.70491 -0.9331,0.009 0.007,1.40077 -10.39735,11.82072 -20.83085,-2.20509 -0.0813,-5.74769 4.90722,-0.14459 z"
         sodipodi:nodetypes="cccccccccc"
         inkscape:label="turm_rechts"
         sodipodi:insensitive="true" />
      <path
         id="path10149"
         style="opacity:1;fill:#0086ff;fill-opacity:1;stroke:#000000;stroke-width:10;stroke-linejoin:round;stroke-miterlimit:1;stroke-dasharray:none;stroke-opacity:1;paint-order:markers stroke fill"
         d="m 75.240993,192.72881 82.589817,-11.30405 -0.13088,1.38062 -19.93616,14.13425 -2.9371,6.11822 -47.3642,7.63647 -10.130751,-10.72721 0.03149,-4.44982 z"
         sodipodi:nodetypes="ccccccccc"
         inkscape:label="turm_links"
         sodipodi:insensitive="true" />
      <path
         id="path10141"
         style="opacity:1;fill:#93eaff;fill-opacity:1;stroke:#000000;stroke-width:10;stroke-linejoin:round;stroke-miterlimit:1;stroke-dasharray:none;stroke-opacity:1;paint-order:markers stroke fill"
         d="m 47.807023,212.37524 35.660965,0.46994 -23.912549,18.69806 4.681293,-0.20786 -0.253043,23.8041 -16.375485,0.28919 z"
         sodipodi:nodetypes="ccccccc"
         inkscape:label="häuschen2_links"
         sodipodi:insensitive="true" />
      <path
         id="path10137"
         style="opacity:1;fill:#93eaff;fill-opacity:1;stroke:#000000;stroke-width:10;stroke-linejoin:round;stroke-miterlimit:1;stroke-dasharray:none;stroke-opacity:1;paint-order:markers stroke fill"
         d="m 64.230342,231.17873 75.585508,-9.33502 -1.32911,25.23455 -74.503803,8.0455 z"
         sodipodi:nodetypes="ccccc"
         inkscape:label="häuschen1_links"
         sodipodi:insensitive="true" />
      <path
         id="path10147"
         style="opacity:1;fill:#d62293;fill-opacity:1;stroke:#000000;stroke-width:10;stroke-linejoin:round;stroke-miterlimit:1;stroke-dasharray:none;stroke-opacity:1;paint-order:markers stroke fill"
         d="m 59.508894,197.23475 15.894673,0.0201 12.235413,13.46341 -3.954341,2.08367 -39.712562,-0.0647 z"
         sodipodi:nodetypes="cccccc"
         inkscape:label="dach_häuschen2_links"
         sodipodi:insensitive="true" />
      <path
         id="path10139"
         style="opacity:1;fill:#d62293;fill-opacity:1;stroke:#000000;stroke-width:10;stroke-linejoin:round;stroke-miterlimit:1;stroke-dasharray:none;stroke-opacity:1;paint-order:markers stroke fill"
         d="m 88.998785,209.73637 45.909195,-6.90446 -1.49114,3.13593 3.61038,0.24852 1.15225,5.96006 1.71707,9.66986 -80.436608,9.91979 z"
         sodipodi:nodetypes="cccccccc"
         inkscape:label="dach_häuschen1_Links"
         sodipodi:insensitive="true" />
      <path
         id="path10125"
         style="opacity:1;fill:#d62293;fill-opacity:1;stroke:#000000;stroke-width:10;stroke-linejoin:round;stroke-miterlimit:1;stroke-dasharray:none;stroke-opacity:1;paint-order:markers stroke fill"
         inkscape:label="dach_häuschen2_rechts"
         d="m 216.49621,195.78286 14.42344,-0.1446 22.30392,17.31536 -40.95679,-0.0361 -6.18148,-5.29583 z"
         sodipodi:nodetypes="cccccc"
         sodipodi:insensitive="true" />
      <path
         id="path10121"
         style="opacity:1;fill:#d62293;fill-opacity:1;stroke:#000000;stroke-width:10;stroke-linejoin:round;stroke-miterlimit:1;stroke-dasharray:none;stroke-opacity:1;paint-order:markers stroke fill"
         d="m 185.15505,205.2539 21.07486,2.31353 28.88304,24.8705 -49.8856,-9.14569 z"
         sodipodi:nodetypes="ccccc"
         inkscape:label="dach_häuschen1_rechts"
         sodipodi:insensitive="true" />
      <path
         id="path10155"
         style="opacity:1;fill:#0b0f18;fill-opacity:1;stroke:#000000;stroke-width:2;stroke-linejoin:round;stroke-miterlimit:1;stroke-dasharray:none;stroke-opacity:1;paint-order:markers stroke fill"
         d="m 161.0591,20.040531 0.93048,-0.57839 0.93987,41.69939 h -1.94265 z"
         sodipodi:nodetypes="ccccc"
         inkscape:label="spitze1"
         sodipodi:insensitive="true" />
      <path
         id="path10157"
         style="opacity:1;fill:#0b0f18;fill-opacity:1;stroke:#000000;stroke-width:2;stroke-linejoin:round;stroke-miterlimit:1;stroke-dasharray:none;stroke-opacity:1;paint-order:markers stroke fill"
         d="m 126.52143,29.895211 0.86757,0.2169 0.25304,39.14934 -2.16893,-0.21689 z"
         sodipodi:nodetypes="ccccc"
         inkscape:label="spitze2"
         sodipodi:insensitive="true" />
      <path
         id="path10151"
         style="opacity:1;fill:#d62293;fill-opacity:1;stroke:#000000;stroke-width:10;stroke-linejoin:round;stroke-miterlimit:1;stroke-dasharray:none;stroke-opacity:1;paint-order:markers stroke fill"
         d="m 161.47245,60.303462 2.19388,0.157983 2.33046,2.934926 43.6585,116.763509 9.86662,12.39717 -56.84807,-10.4034 -2.87646,-1.65714 -0.13651,0.84865 -4.33909,-0.80129 z"
         sodipodi:nodetypes="cccccccccc"
         inkscape:label="dach_turm_rechts"
         sodipodi:insensitive="true" />
      <path
         id="path10153"
         style="opacity:1;fill:#d62293;fill-opacity:1;stroke:#000000;stroke-width:10;stroke-linejoin:round;stroke-miterlimit:1;stroke-dasharray:none;stroke-opacity:1;paint-order:markers stroke fill"
         d="m 124.38319,70.144531 36.70586,-9.8155 -6.28805,119.677479 -82.051409,13.0362 7.821723,-10.12222 z"
         sodipodi:nodetypes="cccccc"
         inkscape:label="dach_turm_links"
         sodipodi:insensitive="true" />
      <rect
         style="display:inline;fill:#93eaff;fill-opacity:1;stroke:#000000;stroke-width:8.63324;stroke-linejoin:round;stroke-miterlimit:1;stroke-dasharray:none;stroke-opacity:1;paint-order:markers stroke fill"
         id="rect8328"
         width="46.966202"
         height="36.452995"
         x="138.53983"
         y="205.36275"
         sodipodi:insensitive="true"
         inkscape:label="häuschen" />
      <path
         id="rect8382"
         style="display:inline;fill:#d62293;fill-opacity:1;stroke:#000000;stroke-width:10;stroke-linejoin:round;stroke-miterlimit:1;paint-order:markers stroke fill"
         d="m 160.18628,181.93896 -0.0633,-1e-5 29.00631,20.13976 h -54.71932 z"
         sodipodi:nodetypes="ccccc"
         sodipodi:insensitive="true"
         inkscape:label="dach" />
      <g
         id="g11178"
         transform="matrix(0.89911143,0,0,0.8994483,18.844439,31.346192)"
         inkscape:label="uhr_rechts">
        <rect
           style="display:inline;fill:#d62293;fill-opacity:1;stroke:#000000;stroke-width:5.74756;stroke-linejoin:round;stroke-miterlimit:1;stroke-dasharray:none;stroke-opacity:1;paint-order:markers stroke fill"
           id="rect9584-6-4"
           width="1.3924305"
           height="18.365551"
           x="352.42456"
           y="69.558586"
           transform="rotate(46.598905)" />
        <rect
           style="display:inline;fill:#d62293;fill-opacity:1;stroke:#000000;stroke-width:5.55918;stroke-linejoin:round;stroke-miterlimit:1;stroke-dasharray:none;stroke-opacity:1;paint-order:markers stroke fill"
           id="rect9584-0"
           width="1.5808086"
           height="15.133972"
           x="191.08882"
           y="289.42047" />
      </g>
      <g
         id="g11241"
         transform="matrix(0.94977916,0,0,0.94986459,4.8194474,17.028565)"
         inkscape:label="uhr_links">
        <rect
           style="display:inline;fill:#d62293;fill-opacity:1;stroke:#000000;stroke-width:5.74756;stroke-linejoin:round;stroke-miterlimit:1;stroke-dasharray:none;stroke-opacity:1;paint-order:markers stroke fill"
           id="rect9584-6"
           width="1.3924305"
           height="18.365551"
           x="299.96405"
           y="125.8615"
           transform="rotate(46.598905)" />
        <rect
           style="display:inline;fill:#d62293;fill-opacity:1;stroke:#000000;stroke-width:5.55918;stroke-linejoin:round;stroke-miterlimit:1;stroke-dasharray:none;stroke-opacity:1;paint-order:markers stroke fill"
           id="rect9584"
           width="1.5808086"
           height="15.133972"
           x="114.22145"
           y="289.42047" />
      </g>
    </g>
    <path
       id="text7"
       style="font-weight:bold;font-size:35.2778px;line-height:1.4;font-family:'Clarity City';-inkscape-font-specification:'Clarity City Bold';text-align:end;text-anchor:end;stroke-width:10"
       d="M 175.39131 493.43818 C 173.11002 493.43818 170.9696 494.01434 168.97052 495.16675 C 166.99496 496.29564 165.41908 497.824 164.24316 499.75252 C 163.06723 501.65752 162.47944 503.72718 162.47944 505.96144 C 162.47944 508.1957 163.06723 510.27699 164.24316 512.20551 C 165.41908 514.13403 166.99496 515.67452 168.97052 516.82693 C 170.9696 517.95582 173.11002 518.52037 175.39131 518.52037 C 177.17873 518.52037 178.88347 518.16759 180.50625 517.46203 C 182.15255 516.73295 183.57527 515.73325 184.77472 514.46325 L 181.00027 511.07689 C 180.29472 511.92357 179.44816 512.59374 178.46038 513.08762 C 177.49612 513.558 176.47317 513.79301 175.39131 513.79301 C 174.05076 513.79301 172.79228 513.44023 171.61635 512.73467 C 170.46394 512.0056 169.54662 511.04179 168.86458 509.84234 C 168.18254 508.6429 167.84139 507.34904 167.84139 505.96144 C 167.84139 504.59737 168.18254 503.31565 168.86458 502.1162 C 169.57013 500.91675 170.49908 499.96456 171.65149 499.25901 C 172.8039 498.52994 174.05076 498.16502 175.39131 498.16502 C 176.44965 498.16502 177.4726 498.41217 178.46038 498.90606 C 179.44816 499.39995 180.29472 500.0585 181.00027 500.88165 L 184.77472 497.49478 C 183.57527 496.22478 182.16417 495.2372 180.54139 494.53165 C 178.91861 493.80257 177.20224 493.43818 175.39131 493.43818 z M 221.92232 493.43818 C 219.64102 493.43818 217.50112 494.01434 215.50204 495.16675 C 213.52648 496.29564 211.95061 497.824 210.77468 499.75252 C 209.59876 501.65752 209.01097 503.72718 209.01097 505.96144 C 209.01097 508.1957 209.59876 510.27699 210.77468 512.20551 C 211.95061 514.13403 213.52648 515.67452 215.50204 516.82693 C 217.50112 517.95582 219.64102 518.52037 221.92232 518.52037 C 224.20362 518.52037 226.3319 517.95582 228.30746 516.82693 C 230.28302 515.67452 231.84728 514.13403 232.99968 512.20551 C 234.17561 510.27699 234.7634 508.1957 234.7634 505.96144 C 234.7634 503.72718 234.17561 501.65752 232.99968 499.75252 C 231.84728 497.824 230.28302 496.29564 228.30746 495.16675 C 226.3319 494.01434 224.20362 493.43818 221.92232 493.43818 z M 188.97291 493.86141 L 188.97291 518.09714 L 206.2592 518.09714 L 206.2592 513.40492 L 194.1943 513.40492 L 194.1943 493.86141 L 188.97291 493.86141 z M 238.96159 493.86141 L 238.96159 507.61974 C 238.96159 509.71289 239.42 511.59402 240.33722 513.26384 C 241.27796 514.91013 242.58344 516.20399 244.25326 517.14474 C 245.92307 518.06196 247.81635 518.52037 249.93302 518.52037 C 252.04969 518.52037 253.94296 518.06196 255.61277 517.14474 C 257.28259 516.20399 258.57593 514.91013 259.49316 513.26384 C 260.4339 511.59402 260.90444 509.71289 260.90444 507.61974 L 260.90444 493.86141 L 255.68305 493.86141 L 255.68305 507.40787 C 255.68305 508.63083 255.43642 509.73616 254.94253 510.72394 C 254.44864 511.6882 253.76633 512.44076 252.89614 512.98169 C 252.02596 513.52261 251.03839 513.79301 249.93302 513.79301 C 248.82765 513.79301 247.82794 513.52261 246.93423 512.98169 C 246.06405 512.44076 245.38225 511.6882 244.88836 510.72394 C 244.39447 509.73616 244.14732 508.63083 244.14732 507.40787 L 244.14732 493.86141 L 238.96159 493.86141 z M 266.5134 493.86141 L 266.5134 518.09714 L 275.22708 518.09714 C 277.90819 518.09714 280.30739 517.5796 282.42406 516.54478 C 284.54072 515.50996 286.18685 514.07561 287.36277 512.24116 C 288.56222 510.3832 289.16215 508.28978 289.16215 505.96144 C 289.16215 503.63311 288.56222 501.55183 287.36277 499.71738 C 286.18685 497.88293 284.54072 496.44806 282.42406 495.41325 C 280.30739 494.37844 277.90819 493.86141 275.22708 493.86141 L 266.5134 493.86141 z M 303.41399 493.86141 L 303.41399 518.09714 L 308.63538 518.09714 L 308.63538 502.43401 L 320.31218 518.09714 L 325.53357 518.09714 L 325.53357 493.86141 L 320.31218 493.86141 L 320.31218 509.52453 L 308.63538 493.86141 L 303.41399 493.86141 z M 339.36218 493.86141 L 329.48423 518.09714 L 335.30507 518.09714 L 336.9985 513.93408 L 347.51156 513.93408 L 349.20499 518.09714 L 355.06097 518.09714 L 345.18302 493.86141 L 339.36218 493.86141 z M 357.0717 493.86141 L 357.0717 498.55311 L 364.62111 498.55311 L 364.62111 518.09714 L 369.80684 518.09714 L 369.80684 498.55311 L 377.3919 498.55311 L 377.3919 493.86141 L 357.0717 493.86141 z M 381.55444 493.86141 L 381.55444 518.09714 L 386.77583 518.09714 L 386.77583 493.86141 L 381.55444 493.86141 z M 390.76215 493.86141 L 400.63958 518.09714 L 406.46041 518.09714 L 416.33836 493.86141 L 410.48239 493.86141 L 403.56808 510.93582 L 396.61812 493.86141 L 390.76215 493.86141 z M 420.32468 493.86141 L 420.32468 518.09714 L 438.98659 518.09714 L 438.98659 513.40492 L 425.54607 513.40492 L 425.54607 508.07811 L 437.75204 508.07811 L 437.75204 503.38641 L 425.54607 503.38641 L 425.54607 498.55311 L 438.98659 498.55311 L 438.98659 493.86141 L 420.32468 493.86141 z M 221.92232 498.16502 C 223.23936 498.16502 224.47408 498.52994 225.62649 499.25901 C 226.80242 499.96456 227.73137 500.91675 228.4134 502.1162 C 229.09544 503.31565 229.43659 504.59737 229.43659 505.96144 C 229.43659 507.34904 229.09544 508.6429 228.4134 509.84234 C 227.73137 511.04179 226.80242 512.0056 225.62649 512.73467 C 224.47408 513.44023 223.23936 513.79301 221.92232 513.79301 C 220.58176 513.79301 219.3238 513.44023 218.14788 512.73467 C 216.99547 512.0056 216.07815 511.04179 215.39611 509.84234 C 214.71407 508.6429 214.37291 507.34904 214.37291 505.96144 C 214.37291 504.59737 214.71407 503.31565 215.39611 502.1162 C 216.10167 500.91675 217.03061 499.96456 218.18302 499.25901 C 219.33542 498.52994 220.58176 498.16502 221.92232 498.16502 z M 271.73479 498.58825 L 275.89732 498.58825 C 277.42602 498.58825 278.79013 498.90616 279.98958 499.54116 C 281.18903 500.17616 282.11797 501.0581 282.77649 502.187 C 283.45852 503.29237 283.79968 504.55034 283.79968 505.96144 C 283.79968 507.39608 283.45852 508.6778 282.77649 509.80669 C 282.11797 510.91206 281.18903 511.78238 279.98958 512.41738 C 278.79013 513.05238 277.42602 513.36978 275.89732 513.36978 L 271.73479 513.36978 L 271.73479 498.58825 z M 342.25503 501.02273 L 345.85326 509.87748 L 338.6568 509.87748 L 342.25503 501.02273 z M 169.81284 522.64415 C 168.50565 522.64415 167.27947 522.97445 166.134 523.63478 C 165.002 524.28164 164.09892 525.15749 163.42512 526.26253 C 162.75131 527.3541 162.41433 528.54022 162.41433 529.82045 C 162.41433 531.10069 162.75131 532.29348 163.42512 533.39853 C 164.09892 534.50357 165.002 535.3861 166.134 536.04643 C 167.27947 536.69328 168.50565 537.0164 169.81284 537.0164 C 170.83703 537.0164 171.81407 536.81452 172.74393 536.41023 C 173.68725 535.99247 174.50249 535.4197 175.18977 534.69199 L 173.02712 532.75154 C 172.62283 533.23668 172.13739 533.62041 171.57139 533.90341 C 171.01887 534.17294 170.43274 534.30803 169.81284 534.30803 C 169.0447 534.30803 168.32399 534.10564 167.65018 533.70135 C 166.98985 533.28359 166.46382 532.73137 166.07302 532.04409 C 165.68221 531.3568 165.48701 530.61555 165.48701 529.82045 C 165.48701 529.03884 165.68221 528.30425 166.07302 527.61697 C 166.4773 526.92968 167.01001 526.38414 167.67034 525.97986 C 168.33067 525.5621 169.0447 525.35303 169.81284 525.35303 C 170.41927 525.35303 171.0054 525.4943 171.57139 525.77729 C 172.13739 526.06029 172.62283 526.43785 173.02712 526.90952 L 175.18977 524.96907 C 174.50249 524.24136 173.69394 523.67527 172.76408 523.27098 C 171.83423 522.85322 170.8505 522.64415 169.81284 522.64415 z M 184.16494 522.64415 C 182.85775 522.64415 181.63156 522.97445 180.48609 523.63478 C 179.35409 524.28164 178.45102 525.15749 177.77721 526.26253 C 177.10341 527.3541 176.76642 528.54022 176.76642 529.82045 C 176.76642 531.10069 177.10341 532.29348 177.77721 533.39853 C 178.45102 534.50357 179.35409 535.3861 180.48609 536.04643 C 181.63156 536.69328 182.85775 537.0164 184.16494 537.0164 C 185.47212 537.0164 186.69163 536.69328 187.82363 536.04643 C 188.95562 535.3861 189.85202 534.50357 190.51235 533.39853 C 191.18616 532.29348 191.52314 531.10069 191.52314 529.82045 C 191.52314 528.54022 191.18616 527.3541 190.51235 526.26253 C 189.85202 525.15749 188.95562 524.28164 187.82363 523.63478 C 186.69163 522.97445 185.47212 522.64415 184.16494 522.64415 z M 308.44211 522.64415 C 307.12145 522.64415 305.88806 522.97445 304.74259 523.63478 C 303.59712 524.28164 302.68068 525.15749 301.9934 526.26253 C 301.3196 527.3541 300.98261 528.54022 300.98261 529.82045 C 300.98261 531.10069 301.3196 532.29348 301.9934 533.39853 C 302.68068 534.50357 303.59712 535.3861 304.74259 536.04643 C 305.88806 536.69328 307.12145 537.0164 308.44211 537.0164 C 309.47977 537.0164 310.49688 536.81452 311.49412 536.41023 C 312.50483 535.99247 313.35397 535.4197 314.04125 534.69199 L 314.04125 528.97141 L 307.91656 528.97141 L 307.91656 531.29582 L 311.13031 531.29582 L 311.13031 533.41868 C 310.75298 533.70168 310.32867 533.9236 309.85701 534.08531 C 309.38535 534.23355 308.91377 534.30803 308.44211 534.30803 C 307.66049 534.30803 306.93258 534.10564 306.25878 533.70135 C 305.58497 533.28359 305.04611 532.73137 304.64182 532.04409 C 304.25101 531.3568 304.05529 530.61555 304.05529 529.82045 C 304.05529 529.02537 304.25101 528.29078 304.64182 527.61697 C 305.04611 526.92968 305.58497 526.38414 306.25878 525.97986 C 306.93258 525.5621 307.66049 525.35303 308.44211 525.35303 C 309.07549 525.35303 309.70168 525.4943 310.32158 525.77729 C 310.94148 526.06029 311.46031 526.43785 311.87807 526.90952 L 314.04125 524.96907 C 313.35397 524.24136 312.50483 523.67527 311.49412 523.27098 C 310.49688 522.85322 309.47977 522.64415 308.44211 522.64415 z M 337.81292 522.64415 C 336.50574 522.64415 335.27955 522.97445 334.13408 523.63478 C 333.00208 524.28164 332.09901 525.15749 331.4252 526.26253 C 330.75139 527.3541 330.41492 528.54022 330.41492 529.82045 C 330.41492 531.10069 330.75139 532.29348 331.4252 533.39853 C 332.09901 534.50357 333.00208 535.3861 334.13408 536.04643 C 335.27955 536.69328 336.50574 537.0164 337.81292 537.0164 C 339.1201 537.0164 340.34013 536.69328 341.47213 536.04643 C 342.60412 535.3861 343.50001 534.50357 344.16034 533.39853 C 344.83415 532.29348 345.17113 531.10069 345.17113 529.82045 C 345.17113 528.54022 344.83415 527.3541 344.16034 526.26253 C 343.50001 525.15749 342.60412 524.28164 341.47213 523.63478 C 340.34013 522.97445 339.1201 522.64415 337.81292 522.64415 z M 389.54103 522.64415 C 388.22036 522.64415 386.9875 522.97445 385.84203 523.63478 C 384.69656 524.28164 383.78013 525.15749 383.09285 526.26253 C 382.41904 527.3541 382.08205 528.54022 382.08205 529.82045 C 382.08205 531.10069 382.41904 532.29348 383.09285 533.39853 C 383.78013 534.50357 384.69656 535.3861 385.84203 536.04643 C 386.9875 536.69328 388.22036 537.0164 389.54103 537.0164 C 390.57869 537.0164 391.59632 536.81452 392.59356 536.41023 C 393.60426 535.99247 394.4534 535.4197 395.14069 534.69199 L 395.14069 528.97141 L 389.01548 528.97141 L 389.01548 531.29582 L 392.22976 531.29582 L 392.22976 533.41868 C 391.85243 533.70168 391.42812 533.9236 390.95645 534.08531 C 390.48478 534.23355 390.01269 534.30803 389.54103 534.30803 C 388.75941 534.30803 388.03203 534.10564 387.35822 533.70135 C 386.68441 533.28359 386.14554 532.73137 385.74126 532.04409 C 385.35045 531.3568 385.15474 530.61555 385.15474 529.82045 C 385.15474 529.02537 385.35045 528.29078 385.74126 527.61697 C 386.14554 526.92968 386.68441 526.38414 387.35822 525.97986 C 388.03203 525.5621 388.75941 525.35303 389.54103 525.35303 C 390.1744 525.35303 390.80111 525.4943 391.42102 525.77729 C 392.04092 526.06029 392.55975 526.43785 392.97751 526.90952 L 395.14069 524.96907 C 394.4534 524.24136 393.60426 523.67527 392.59356 523.27098 C 391.59632 522.85322 390.57869 522.64415 389.54103 522.64415 z M 194.23151 522.88703 L 194.23151 536.77403 L 197.22305 536.77403 L 197.22305 528.12237 L 201.50858 535.9653 L 205.81426 528.12237 L 205.81426 536.77403 L 208.78566 536.77403 L 208.78566 522.88703 L 205.81426 522.88703 L 201.50858 530.72996 L 197.22305 522.88703 L 194.23151 522.88703 z M 212.32342 522.88703 L 212.32342 536.77403 L 215.31497 536.77403 L 215.31497 528.12237 L 219.6005 535.9653 L 223.90618 528.12237 L 223.90618 536.77403 L 226.87757 536.77403 L 226.87757 522.88703 L 223.90618 522.88703 L 219.6005 530.72996 L 215.31497 522.88703 L 212.32342 522.88703 z M 230.112 522.88703 L 230.112 530.77027 C 230.112 531.96964 230.3745 533.04789 230.90007 534.00469 C 231.43912 534.94803 232.18706 535.68929 233.14386 536.22833 C 234.10067 536.7539 235.18559 537.0164 236.39844 537.0164 C 237.61129 537.0164 238.69622 536.7539 239.65302 536.22833 C 240.60982 535.68929 241.35109 534.94803 241.87666 534.00469 C 242.41571 533.04789 242.68488 531.96964 242.68488 530.77027 L 242.68488 522.88703 L 239.69333 522.88703 L 239.69333 530.64934 C 239.69333 531.3501 239.55206 531.98349 239.26907 532.54949 C 238.98607 533.10201 238.59515 533.53299 238.09653 533.84295 C 237.59792 534.1529 237.03182 534.30803 236.39844 534.30803 C 235.76506 534.30803 235.19229 534.1529 234.6802 533.84295 C 234.18159 533.53299 233.79066 533.10201 233.50766 532.54949 C 233.22466 531.98349 233.0834 531.3501 233.0834 530.64934 L 233.0834 522.88703 L 230.112 522.88703 z M 245.89915 522.88703 L 245.89915 536.77403 L 248.8907 536.77403 L 248.8907 527.79887 L 255.58177 536.77403 L 258.57331 536.77403 L 258.57331 522.88703 L 255.58177 522.88703 L 255.58177 531.86219 L 248.8907 522.88703 L 245.89915 522.88703 z M 262.09093 522.88703 L 262.09093 536.77403 L 265.08248 536.77403 L 265.08248 522.88703 L 262.09093 522.88703 z M 267.48802 522.88703 L 267.48802 525.57523 L 271.81385 525.57523 L 271.81385 536.77403 L 274.78525 536.77403 L 274.78525 525.57523 L 279.13123 525.57523 L 279.13123 522.88703 L 267.48802 522.88703 z M 280.22264 522.88703 L 285.66055 531.7609 L 285.66055 536.77403 L 288.67225 536.77403 L 288.67225 531.7609 L 294.09001 522.88703 L 290.7543 522.88703 L 287.15658 528.97141 L 283.69995 522.88703 L 280.22264 522.88703 z M 317.01264 522.88703 L 317.01264 536.77403 L 320.00419 536.77403 L 320.00419 532.2663 L 321.80356 532.2663 L 324.97701 536.77403 L 328.37319 536.77403 L 325.03799 532.02394 C 326.08912 531.71398 326.92439 531.16792 327.5443 530.38631 C 328.17767 529.59122 328.49463 528.65475 328.49463 527.57666 C 328.49463 526.67376 328.26552 525.86521 327.80733 525.15097 C 327.36262 524.43674 326.74259 523.884 325.9475 523.49319 C 325.15241 523.0889 324.25601 522.88703 323.25877 522.88703 L 317.01264 522.88703 z M 347.57667 522.88703 L 347.57667 530.77027 C 347.57667 531.96964 347.83916 533.04789 348.36473 534.00469 C 348.90377 534.94803 349.65172 535.68929 350.60852 536.22833 C 351.56533 536.7539 352.65025 537.0164 353.86311 537.0164 C 355.07596 537.0164 356.16089 536.7539 357.11769 536.22833 C 358.07449 535.68929 358.81575 534.94803 359.34132 534.00469 C 359.88036 533.04789 360.15006 531.96964 360.15006 530.77027 L 360.15006 522.88703 L 357.15799 522.88703 L 357.15799 530.64934 C 357.15799 531.3501 357.01673 531.98349 356.73373 532.54949 C 356.45074 533.10201 356.05981 533.53299 355.56119 533.84295 C 355.06257 534.1529 354.49648 534.30803 353.86311 534.30803 C 353.22973 534.30803 352.65696 534.1529 352.14486 533.84295 C 351.64625 533.53299 351.25584 533.10201 350.97284 532.54949 C 350.68984 531.98349 350.54806 531.3501 350.54806 530.64934 L 350.54806 522.88703 L 347.57667 522.88703 z M 363.36382 522.88703 L 363.36382 536.77403 L 366.35537 536.77403 L 366.35537 532.2663 L 369.60995 532.2663 C 370.60718 532.2663 371.50358 532.0711 372.29867 531.68029 C 373.09376 531.276 373.71379 530.71659 374.15851 530.00235 C 374.61669 529.28812 374.8458 528.47956 374.8458 527.57666 C 374.8458 526.67376 374.61669 525.86521 374.15851 525.15097 C 373.71379 524.43674 373.09376 523.884 372.29867 523.49319 C 371.50358 523.0889 370.60718 522.88703 369.60995 522.88703 L 363.36382 522.88703 z M 398.11208 522.88703 L 398.11208 536.77403 L 401.10363 536.77403 L 401.10363 532.2663 L 402.90301 532.2663 L 406.07646 536.77403 L 409.47263 536.77403 L 406.13692 532.02394 C 407.18806 531.71398 408.02384 531.16792 408.64374 530.38631 C 409.27712 529.59122 409.59355 528.65475 409.59355 527.57666 C 409.59355 526.67376 409.36444 525.86521 408.90626 525.15097 C 408.46154 524.43674 407.84203 523.884 407.04694 523.49319 C 406.25185 523.0889 405.35545 522.88703 404.35821 522.88703 L 398.11208 522.88703 z M 416.74971 522.88703 L 411.08959 536.77403 L 414.42478 536.77403 L 415.39527 534.38865 L 421.41919 534.38865 L 422.38916 536.77403 L 425.74502 536.77403 L 420.0849 522.88703 L 416.74971 522.88703 z M 427.32167 522.88703 L 427.32167 525.57523 L 434.47731 525.57523 L 427.18008 534.51009 L 427.18008 536.77403 L 438.66155 536.77403 L 438.66155 534.08531 L 431.2837 534.08531 L 438.56078 525.15097 L 438.56078 522.88703 L 427.32167 522.88703 z M 184.16494 525.35303 C 184.9196 525.35303 185.62696 525.5621 186.28729 525.97986 C 186.96109 526.38414 187.4938 526.92968 187.88461 527.61697 C 188.27542 528.30425 188.47062 529.03884 188.47062 529.82045 C 188.47062 530.61555 188.27542 531.3568 187.88461 532.04409 C 187.4938 532.73137 186.96109 533.28359 186.28729 533.70135 C 185.62696 534.10564 184.9196 534.30803 184.16494 534.30803 C 183.3968 534.30803 182.67608 534.10564 182.00228 533.70135 C 181.34195 533.28359 180.81593 532.73137 180.42511 532.04409 C 180.03431 531.3568 179.8391 530.61555 179.8391 529.82045 C 179.8391 529.03884 180.03431 528.30425 180.42511 527.61697 C 180.8294 526.92968 181.3621 526.38414 182.02243 525.97986 C 182.68276 525.5621 183.3968 525.35303 184.16494 525.35303 z M 337.81292 525.35303 C 338.56758 525.35303 339.27546 525.5621 339.93579 525.97986 C 340.6096 526.38414 341.14179 526.92968 341.53259 527.61697 C 341.9234 528.30425 342.1186 529.03884 342.1186 529.82045 C 342.1186 530.61555 341.9234 531.3568 341.53259 532.04409 C 341.14179 532.73137 340.6096 533.28359 339.93579 533.70135 C 339.27546 534.10564 338.56758 534.30803 337.81292 534.30803 C 337.04478 534.30803 336.32407 534.10564 335.65026 533.70135 C 334.98993 533.28359 334.46442 532.73137 334.07362 532.04409 C 333.68281 531.3568 333.48709 530.61555 333.48709 529.82045 C 333.48709 529.03884 333.68281 528.30425 334.07362 527.61697 C 334.4779 526.92968 335.01009 526.38414 335.67042 525.97986 C 336.33075 525.5621 337.04478 525.35303 337.81292 525.35303 z M 320.00419 525.61606 L 322.95595 525.61606 C 323.69713 525.61606 324.29661 525.79791 324.7548 526.16176 C 325.21299 526.51214 325.4421 526.98371 325.4421 527.57666 C 325.4421 528.16961 325.21299 528.64786 324.7548 529.01172 C 324.29661 529.36209 323.69713 529.53727 322.95595 529.53727 L 320.00419 529.53727 L 320.00419 525.61606 z M 366.35537 525.61606 L 369.30712 525.61606 C 370.04831 525.61606 370.64779 525.79791 371.10598 526.16176 C 371.56417 526.51214 371.79328 526.98371 371.79328 527.57666 C 371.79328 528.16961 371.56417 528.64786 371.10598 529.01172 C 370.64779 529.36209 370.04831 529.53727 369.30712 529.53727 L 366.35537 529.53727 L 366.35537 525.61606 z M 401.10363 525.61606 L 404.05487 525.61606 C 404.79606 525.61606 405.39606 525.79791 405.85425 526.16176 C 406.31244 526.51214 406.54154 526.98371 406.54154 527.57666 C 406.54154 528.16961 406.31244 528.64786 405.85425 529.01172 C 405.39606 529.36209 404.79606 529.53727 404.05487 529.53727 L 401.10363 529.53727 L 401.10363 525.61606 z M 418.40697 526.99014 L 420.46886 532.06424 L 416.34508 532.06424 L 418.40697 526.99014 z "
       inkscape:label="Cloud Native Community Group Graz" />
    <text
       xml:space="preserve"
       style="font-style:normal;font-variant:normal;font-weight:normal;font-stretch:normal;font-size:35.2778px;line-height:1.4;font-family:'Clarity City';-inkscape-font-specification:'Clarity City';text-align:end;writing-mode:lr-tb;direction:ltr;text-anchor:end;display:none;fill:#000000;fill-opacity:1;stroke-width:10"
       x="353.56186"
       y="356.62659"
       id="text7-4"
       sodipodi:insensitive="true"><tspan
         sodipodi:role="line"
         id="tspan7-8"
         style="font-style:normal;font-variant:normal;font-weight:bold;font-stretch:normal;font-size:35.2778px;font-family:'Clarity City';-inkscape-font-specification:'Clarity City Bold';stroke-width:10"
         x="0"
         y="0">CLOUD NATIVE</tspan></text>
    <text
       xml:space="preserve"
       style="font-style:normal;font-variant:normal;font-weight:normal;font-stretch:normal;font-size:20.2142px;line-height:1.4;font-family:'Clarity City';-inkscape-font-specification:'Clarity City';text-align:end;writing-mode:lr-tb;direction:ltr;text-anchor:end;display:none;fill:#000000;fill-opacity:1;stroke-width:10"
       x="352.19113"
       y="375.30353"
       id="text7-0-8"
       sodipodi:insensitive="true"><tspan
         sodipodi:role="line"
         id="tspan7-9-2"
         style="font-style:normal;font-variant:normal;font-weight:bold;font-stretch:normal;font-size:20.2142px;font-family:'Clarity City';-inkscape-font-specification:'Clarity City Bold';stroke-width:10"
         x="0"
         y="0">COMMUNITY GROUP GRAZ</tspan></text>
  </g>
</svg>
